<?xml version="1.0" encoding="utf-8"?>
<svg width="622px" height="756px" viewBox="0 0 622 756" version="1.1" xmlns:xlink="http://www.w3.org/1999/xlink" xmlns="http://www.w3.org/2000/svg">
  <desc>Created with Lunacy</desc>
  <defs>
    <linearGradient x1="0.5" y1="3.061617E-17" x2="0.5" y2="1" id="gradient_1">
      <stop offset="0" stop-color="#FFEB3F" />
      <stop offset="1" stop-color="#F18C35" />
    </linearGradient>
    <path d="M398.742 141.796C400.497 138.956 402.883 138.175 406.115 138.412C407.918 135.355 410.638 129.677 412.908 127.409C413.602 126.711 413.59 126.834 413.58 126.936C413.568 127.059 413.559 127.153 414.788 125.751C417.528 122.624 417.372 121.082 417.697 117.992C417.96 115.562 418.274 114.967 420.347 112.886L421.617 111.68C421.767 111.526 421.867 111.406 422.012 111.252C428.77 104.054 434.174 91.336 437.322 88.4431C440.292 85.7149 442.86 86.4034 445.436 83.0435C446.498 81.6595 445.995 82.0698 447.182 80.9342C448.841 79.3416 450.817 75.6311 452.443 73.9533L456.049 69.9746C460.588 64.9085 461.088 62.917 462.742 61.2307C465.447 58.4784 468.944 51.7232 471.596 49.2079L480.614 39.1738C487.276 31.0616 483.569 35.1979 487.522 29.8309C489.34 27.3596 492.6 24.7407 494.754 22.0083L511.354 2.09893C511.476 1.99389 511.613 1.87324 511.738 1.76536C511.919 1.60617 512.087 1.45422 512.245 1.31104C513.613 0.0754159 514.257 -0.506775 516.441 0.550306C515.59 2.77176 513.883 4.82713 513.247 7.00032C511.549 12.7818 506.924 19.4376 503.615 25.0303C499.197 32.5094 492.295 42.1504 490.084 49.7033C488.676 54.5067 482.76 60.4912 481.46 65.6083C479.859 71.9136 466.476 92.3665 462.79 98.5781C460.959 101.664 461.261 102.699 460.142 105.286C459.401 107 457.587 109.7 456.571 111.414C453.456 116.673 440.112 137.697 438.798 141.897C437.085 147.397 435.387 148.955 432.5 154.33C431.684 155.847 431.663 155.99 431.593 156.459C431.563 156.661 431.525 156.923 431.41 157.381L428.637 165.496C427.63 167.471 425.924 169.652 424.971 171.632C424.076 173.487 424.072 173.73 424.067 174.049C424.064 174.233 424.06 174.442 423.883 175.005L420.325 186.225C419.228 188.829 417.304 190.265 415.271 191.919L414.503 192.526C413.768 193.199 413.599 193.174 413.552 193.238C413.536 193.259 413.534 193.29 413.529 193.359C413.52 193.507 413.498 193.827 413.312 194.594C413.275 194.728 413.251 194.921 413.222 195.066C412.956 196.369 413.003 197.281 413.045 198.117C413.114 199.466 413.172 200.615 411.886 202.884C408.179 209.431 395.502 228.776 393.554 234.099C390.774 241.715 390.218 242.275 390.117 242.908C390.093 243.061 390.095 243.219 390.099 243.482C390.109 244.21 390.131 245.746 389.634 250.23C389.49 251.541 389.152 252.348 388.821 253.137C388.411 254.114 388.014 255.061 388.017 256.897C388.017 258.567 388.958 260.422 389.096 261.779C389.217 262.994 389.316 263.225 389.33 263.256L389.332 263.26L389.33 263.259C389.308 263.242 389.1 263.077 388.528 264.896C387.275 268.875 387.164 269.495 386.794 269.824C386.483 270.101 385.99 270.173 384.483 271.861C381.991 274.653 379.139 280.416 379.038 283.244C379.025 283.615 379.016 283.975 379.007 284.326C378.911 288.201 378.846 290.833 374.056 292.249C370.469 293.308 372.49 293.92 369.298 294.144C368.63 294.19 368.452 294.136 368.287 294.086C368.063 294.018 367.863 293.957 366.485 294.168C362.399 294.793 357.546 295.569 354.89 299.21C354.173 300.188 353.578 301.431 353.264 302.534C352.938 303.682 352.994 303.598 353.056 303.505C353.109 303.426 353.167 303.341 352.999 303.995C352.962 304.147 352.942 304.32 352.894 304.469C351.617 308.629 349.984 308.888 349.774 313.941L349.327 319.571C349.066 320.472 348.531 321.356 348.052 322.198C345.698 326.302 342.401 327.923 341.298 332.526C340.493 335.882 337.817 338.103 337.499 341.664C337.221 344.798 337.793 345.858 338.211 346.634C338.871 347.858 339.15 348.374 335.105 355.216C334.21 355.186 333.449 355.121 332.777 355.064C330.194 354.844 328.932 354.736 326.427 357.166C323.446 360.056 322.242 364.487 319.71 367.785C316.768 371.621 315.127 368.86 306.221 383.9C303.125 389.123 302.404 389.671 302.11 395.143L302.062 396.101C301.43 402.727 298.236 404.292 296.972 409.137C296.547 410.769 297.264 412.532 297.963 414.25C299.091 417.024 300.172 419.681 296.319 421.485C292.982 423.046 289.799 421.916 287.529 424.652C286.794 425.545 286.656 426.08 285.787 427.042C284.477 428.487 283.016 429.653 281.627 430.762C278.457 433.291 275.66 435.523 275.887 440.103C275.891 440.236 275.915 440.425 275.926 440.561C276.106 442.844 275.706 443.894 275.16 445.325C274.911 445.98 274.631 446.714 274.362 447.684L274.147 448.649C273.716 450.46 273.853 451.976 273.987 453.45C274.155 455.303 274.316 457.089 273.335 459.312C272.751 460.633 272.7 460.831 272.583 460.884C272.561 460.894 272.537 460.898 272.507 460.904C272.391 460.928 272.184 460.969 271.664 461.391L267.978 463.637C267.858 463.694 267.68 463.771 267.555 463.826C259.685 467.317 260.234 469.745 261.029 473.259C261.296 474.44 261.591 475.744 261.604 477.253C261.634 481.184 260.353 481.83 258.763 482.632C257.841 483.097 256.814 483.615 255.88 484.858C254.347 486.906 254.496 488.415 252.419 489.505L248.02 491.058C247.843 491.167 246.917 491.795 246.768 491.935L246.092 492.696C244.919 494.475 244.95 494.463 245.145 494.387C245.308 494.323 245.584 494.216 245.375 495.058C244.442 498.813 241.773 502.107 239.081 503.656C235.508 505.717 234.003 508.38 231.873 511.998L222.021 528.748C221.494 529.638 220.975 530.555 220.29 531.32C219.235 532.497 219.208 532.424 219.179 532.344C219.154 532.274 219.127 532.199 218.403 532.956C216.945 534.485 216.499 536.22 214.918 537.897L212.849 539.897C211.916 541.224 211.893 541.63 211.862 542.192C211.843 542.536 211.82 542.938 211.585 543.643C211.513 543.861 211.476 543.998 211.392 544.215C210.961 545.321 211.371 544.347 210.864 545.362C209.254 548.576 207.404 551.679 204.763 554.001L196.122 562.366C194.855 563.529 193.587 565.778 193.1 567.725L191.272 574.755C188.855 586.838 187.293 584.991 181.264 589.151C180.833 589.454 180.51 589.772 180.089 590.121C176.329 593.244 168.192 607.447 166.92 612.186L166.107 614.335C163.829 618.849 164.255 620.294 162.842 622.033L162.665 622.251C162.084 622.963 162.014 623.05 161.948 623.046C161.939 623.046 161.93 623.044 161.92 623.041C161.855 623.025 161.74 622.997 161.232 623.32C155.2 627.179 154.919 633.69 150.472 638.035L149.618 638.734C146.89 640.807 147.03 639.894 144.72 643.813L141.952 647.349C141.834 647.458 141.693 647.563 141.577 647.671C141.456 647.788 141.327 647.904 141.202 648.022C137.926 651.24 136.421 653.316 134.164 657.13C133.021 659.054 132.537 660.994 132.168 662.241L128.996 670.039C128.042 673.089 126.126 674.353 123.841 675.961C120.178 678.537 121.393 681.165 115.566 684.464L112.237 685.985C104.757 689.408 104.485 690.614 103.911 693.163C103.682 694.18 103.404 695.411 102.602 697.083C99.5479 703.452 100.094 705.878 95.7286 713.262C90.863 721.497 93.0878 720.028 88.3514 722.137C83.4445 724.318 84.1374 730.132 76.8567 732.349C73.682 733.318 73.6607 735.331 70.6067 737.161L69.806 737.636C69.6853 737.709 69.5277 737.801 69.407 737.882L67.7416 739.081C65.4628 740.924 63.0761 742.501 61.2531 744.835L57.688 749.229C54.3472 752.427 54.3316 754.833 49.9885 756C49.7556 753.574 50.3988 751.732 51.6581 749.622C52.4277 748.331 53.3576 747.076 53.8844 745.664L60.2351 728.844C62.4287 721.396 65.4387 718.637 66.4808 715.051C66.7568 714.096 66.6666 713.953 66.6002 713.847C66.5087 713.702 66.4624 713.628 67.4789 711.608C69.4794 707.619 72.9892 703.555 74.2485 699.375C74.3096 699.171 74.3295 699.017 74.3891 698.816C76.249 692.383 75.1629 694.298 79.6863 690.045C82.2746 687.611 84.2425 683.84 84.3305 680.097C84.3356 679.883 84.2867 679.536 84.2324 679.15C84.1496 678.562 84.0541 677.884 84.1175 677.446C84.4029 675.434 86.4872 672.212 87.9723 670.723C88.6033 670.092 88.771 670.092 88.9023 670.092C89.0927 670.092 89.2063 670.092 90.545 668.168C91.1484 667.298 91.9534 665.758 92.5085 664.784C93.9823 662.192 96.0949 660.216 97.1853 658.97C98.4469 657.535 98.4019 657.112 98.2672 655.85C98.2395 655.591 98.2081 655.296 98.1835 654.95L98.5654 651.481C99.6359 646.581 99.2057 642.412 100.022 640.723C103.528 633.46 106.671 637.918 109.955 633.106C112.672 629.135 114.568 624.033 114.801 619.364C114.842 618.568 114.869 616.971 115.071 616.105C115.377 614.778 115.722 614.32 116.089 612.971C117.224 608.771 120.842 606.381 124.078 603.624C125.361 602.53 125.451 602.984 125.848 601.009L125.929 599.573C126.012 597.913 126.395 596.948 126.733 596.096C127.196 594.927 127.575 593.971 126.98 591.722C126.812 591.083 126.629 590.519 126.46 589.995C126.049 588.722 125.714 587.688 125.848 586.412C126.649 578.738 132.376 576.444 133.35 570.924C133.539 569.86 133.529 569.748 133.515 569.59C133.51 569.533 133.505 569.469 133.508 569.351C133.513 569.031 133.458 568.445 133.427 568.115C133.416 567.988 133.407 567.899 133.407 567.878C133.407 560.575 135.516 562.768 140.052 558.965C140.671 558.447 141.05 558.061 141.577 557.605C142.434 556.857 143.468 556 144.514 554.366C149.783 546.134 149.479 544.793 149.004 542.705C148.719 541.45 148.373 539.924 149.139 536.469C149.364 535.443 149.18 535.23 150.125 534.244C155.526 528.587 158.227 533.77 162.042 523.115C162.285 522.436 162.323 522.208 162.338 522.111C162.344 522.078 162.347 522.06 162.355 522.045C162.385 521.987 162.49 521.969 163.105 521.24L167.523 515.264C169.158 512.843 170.832 513.06 173.174 511.555C173.303 511.47 173.923 511.048 174.109 510.935C174.143 509.973 174.079 509.506 174.01 509C173.943 508.512 173.871 507.988 173.879 506.948C173.967 496.837 179.26 497.219 183.577 493.955L185.667 491.517C186.472 490.008 186.451 489.079 186.753 487.538C188.258 479.812 186.821 484.698 189.55 476.155C190.741 472.416 192.847 462.724 193.132 458.531C193.262 456.709 193.683 453.34 195.635 452.597L196.98 452.101C199.615 451.248 204.513 449.763 206.047 447.929C207.996 445.591 207.965 444.263 207.924 442.485C207.888 440.899 207.843 438.955 209.186 435.617C210.592 432.128 210.072 429.336 212.27 426.004C213.299 424.438 213.423 424.18 213.556 424.175C213.581 424.174 213.607 424.182 213.638 424.192C213.767 424.232 214.002 424.306 214.749 423.943L221.422 422.009C222.495 421.851 224.004 421.087 225.103 420.125C225.14 419.461 225.233 418.122 225.237 417.811C225.256 417.006 225.314 416.852 225.322 416.696C225.329 416.56 225.298 416.424 225.173 415.864C225.146 415.744 225.115 415.605 225.079 415.442C224.976 414.958 224.528 413.896 224.271 413.337L223.469 411.651C224.138 410.521 225.691 407.576 226.444 406.758C229.438 403.512 232.332 405.834 236.626 398.41C237.612 396.708 238.618 395.05 239.621 393.364C241.496 390.197 242.361 387.473 242.453 383.973C242.474 383.212 242.378 382.633 242.293 382.116C242.191 381.5 242.104 380.974 242.249 380.339L243.936 376.15C243.975 375.994 243.987 375.821 244.028 375.668C245.935 368.454 246.93 366.643 253.066 361.585C253.928 360.875 253.893 360.803 253.89 360.795L253.889 360.794L253.891 360.794C253.905 360.793 254.008 360.789 254.645 360.506C255.665 360.057 255.721 360.097 255.787 360.144C255.837 360.181 255.893 360.221 256.4 360.044C262.508 357.927 262.062 353.896 263.076 350.4C263.173 350.064 263.237 349.822 263.277 349.653C263.313 349.577 263.352 349.494 263.394 349.402C263.466 349.253 263.539 349.091 263.62 348.955L268.932 342.549C271.311 340.356 272.901 336.864 274.941 334.941L275.694 334.204C276.374 333.507 277.152 332.803 277.955 332.076C280.945 329.37 284.275 326.356 284.19 322.27C284.173 321.489 284.092 320.964 284.012 320.451C283.914 319.817 283.818 319.201 283.852 318.141C283.891 316.935 283.988 316.701 284.093 315.615C284.244 314.008 284.161 312.973 284.092 312.117C283.944 310.29 283.863 309.286 286.278 305.302C290.073 299.041 293.756 292.668 297.483 286.358C298.248 285.778 298.952 285.871 299.711 285.97C301.272 286.175 303.061 286.411 306.087 280.866C307.777 277.767 307.299 275.332 306.944 273.524C306.478 271.147 306.224 269.855 311.387 269.56C314.069 265.018 313.929 264.227 313.46 261.593C313.275 260.551 313.039 259.222 312.905 257.259L312.848 256.31C312.782 252.235 314.948 251.262 317.438 250.142C319.93 249.022 322.747 247.756 323.977 243.089C323.985 243.052 324.448 240.637 324.448 240.63L324.645 239.644C324.677 239.447 324.766 238.883 324.79 238.687L325.881 228.402C326.769 224.785 331.849 225.074 334.706 223.932L338.336 221.763C342.156 219.231 342.581 218.754 343.057 218.697C343.162 218.684 343.27 218.692 343.417 218.703C343.801 218.731 344.455 218.779 346.04 218.532C349.722 217.956 350.941 214.28 351.907 210.806C353.256 205.95 358.141 203.939 364.561 193.03C371.125 181.872 370.529 187.293 372.554 180.086C373.721 175.93 378.7 168.932 380.997 165.122C383.432 161.087 388.697 160.065 391.454 156.113C392.671 154.365 392.563 154.308 392.371 154.208C392.173 154.104 391.886 153.954 392.849 151.884C394.078 149.257 397.125 144.412 398.742 141.796ZM263.277 349.653C262.789 350.69 262.869 350.351 263.031 349.923C263.193 349.494 263.437 348.976 263.277 349.653ZM8.68778 553.138C4.89474 557.524 3.57241 558.337 0.0806126 556.265C0.0480847 556.111 0.0395992 555.898 0.0367707 555.802C0.0325279 555.71 0.00848554 555.451 0 555.339L1.3591 541.36C1.55568 535.78 5.68107 533.921 7.54081 530.763C8.95224 528.361 8.60716 524.94 9.81352 522.321C11.2815 519.139 14.2953 515.485 15.6346 512.31C16.1822 511.015 16.2251 510.561 16.2644 510.145C16.3128 509.632 16.3557 509.178 17.3345 507.276C18.5847 504.838 18.7743 505.293 19.4474 502.633L20.0131 500.596C20.0725 500.416 20.1532 500.259 20.2097 500.078C20.9706 497.704 20.4332 496.131 21.392 493.782L23.9971 485.983C24.0579 485.806 24.0933 485.632 24.1611 485.464C25.2926 482.68 27.9019 481.287 28.9767 478.21C29.7305 476.037 29.8861 473.747 32.2875 471.337C35.1018 468.512 38.4649 463.97 38.7421 459.424C38.9387 456.139 44.6028 446.169 47.2814 443.389C48.233 442.397 48.1984 442.533 48.1698 442.645C48.141 442.758 48.1184 442.846 49.1086 441.743C49.7182 441.063 49.9388 440.6 50.5285 439.896L52.4972 437.76C53.4901 436.333 53.4146 434.191 53.335 431.93C53.2748 430.22 53.2121 428.442 53.6074 426.851L55.3158 422.413C57.9732 417.601 62.4069 414.684 64.046 409.095C64.162 408.7 64.1752 408.527 64.187 408.372C64.2095 408.077 64.227 407.848 64.937 406.279C66.5888 402.606 67.5901 400.525 68.5278 396.985C70.0919 391.065 75.3671 383.661 79.757 379.255L84.3561 374.681C86.701 372.206 86.9697 369.941 87.5184 367.004C87.6603 366.242 87.6947 365.611 87.7271 365.017C87.792 363.828 87.8489 362.784 88.7417 361.129C90.8264 357.278 93.3437 351.822 96.4706 348.773L100.692 343.63C103.157 341.011 105.615 339.728 107.536 336.134C108.922 333.533 108.922 333.417 108.928 331.692C108.929 331.562 108.929 331.423 108.93 331.274L108.762 325.729C108.79 325.576 108.83 325.398 108.862 325.242C108.898 325.08 108.95 324.912 108.991 324.743C109.741 321.574 109.393 319.608 109.132 318.136C108.876 316.689 108.704 315.72 109.743 314.555L112.979 312.568C121.602 308.906 117.089 306.219 121.899 301.583C123.523 300.014 123.367 299.929 125.166 299.33C130.402 297.592 130.74 294.702 131.198 290.777C131.329 289.65 131.471 288.439 131.741 287.146C131.912 286.333 131.692 286.311 131.589 286.3C131.566 286.298 131.55 286.296 131.543 286.287C131.524 286.259 131.606 286.162 131.938 285.764C132.063 285.615 132.223 285.424 132.427 285.178C133.072 284.397 134.575 283.81 135.61 283.384C135.733 283.336 135.918 283.292 136.039 283.239C138.276 282.27 137.594 282.857 139.33 279.908C141.202 276.738 140.92 275.968 140.498 274.819C140.224 274.074 139.892 273.169 140.051 271.346C140.068 271.172 140.092 270.995 140.116 270.817C140.525 267.663 141.375 266.15 143.752 263.961C145.588 262.268 149.191 258.961 149.989 257.009C151.417 253.504 150.327 241.936 154.143 240.13C155.178 239.635 156.78 239.615 157.943 238.766C160.525 236.891 162.253 233.543 164.779 231.93L171.569 226.748C173.133 225.066 173.582 223.934 174.123 221.963C174.801 219.5 176.055 216.554 178.085 214.407C181.736 210.543 182.571 207.422 185.765 203.084C187.269 201.036 191.305 197.857 193.614 195.676C193.73 195.568 193.879 195.463 193.988 195.355C196.492 192.803 194.357 192.272 196.641 189.548C198.137 187.774 201.256 185.243 203.135 182.543C207.016 176.959 206.819 177.876 211.559 174.202L214.233 171.969C216.923 169.414 220.454 163.068 221.617 159.874C221.976 158.886 221.93 158.365 221.897 157.993C221.829 157.227 221.817 157.095 225.53 154.808C229.194 152.547 231.146 153.041 233.917 148.257C237.949 141.301 241.438 138.226 243.133 134.879C244.471 132.243 244.399 129.519 246.957 126.977C247.113 126.819 247.233 126.731 247.39 126.578C252.67 121.343 254.575 122.236 258.15 116.024C260.78 111.454 263.062 108.302 265.583 105.317C265.732 105.136 265.815 105.015 265.959 104.83C266.56 104.078 266.654 103.727 267.347 102.975C268.12 102.131 269.68 101.253 270.819 100.556C277.613 96.4045 278.122 92.0312 285.427 85.831L290.514 80.4626C292.178 78.8657 292.174 78.041 293.54 76.1333C294.7 74.5165 295.478 73.9075 297.125 72.613L299.105 71.2801C299.522 71.0033 300.296 70.4639 300.652 70.1744L305.495 65.5072C306 64.9989 306.589 64.1866 307.263 63.2569C309.668 59.9386 313.157 55.1251 317.81 57.3027C315.786 60.7392 316.648 61.6193 313.765 66.3844C311.141 70.7138 310.614 75.1027 307.555 79.1879C306.392 80.7424 306.237 80.7427 306.059 80.743C305.89 80.7433 305.699 80.7437 304.614 82.0595C302.145 85.0659 302.997 87.0177 301.057 90.325C298.135 95.3215 299.214 95.1895 297.434 98.7268C292.17 109.192 273.588 136.307 271.188 143.816C268.669 151.674 261.277 159.958 259.36 166.006C256.959 173.575 251.511 180.885 247.53 187.883C246.223 190.183 246.218 190.33 246.152 192.236C246.145 192.439 246.137 192.663 246.127 192.912C245.839 200.138 238.366 196.71 235.929 210.146C235.892 210.346 235.796 210.931 235.756 211.131C234.782 216.161 219.111 240.793 216.462 245.267C215.675 246.583 214.465 248.406 213.824 249.721C213.077 251.267 213.407 250.636 213.022 251.932C211.57 256.86 210.649 257.573 209.658 262.365C209.518 263.04 208.884 266.231 208.748 266.702C208.244 268.416 207.642 269.12 207.14 270.938C206.223 274.302 205.489 276.118 202.908 278.427C201.548 279.646 200.947 281.32 200.353 283.231L196.785 293.032C196.746 293.19 196.709 293.363 196.678 293.516C196.641 293.668 196.613 293.845 196.582 293.994C196.149 296.082 196.509 296.71 195.655 298.412C195.068 299.578 194.97 299.596 194.792 299.628C194.708 299.644 194.606 299.662 194.425 299.808L189.602 302.794C184.122 306.153 174.512 325.471 170.251 332.791C166.77 338.757 166.274 337.844 164.675 340.13C163.293 342.104 163.388 342.266 163.547 342.539C163.663 342.737 163.813 342.993 163.455 344.044C162.457 346.986 160.317 349.65 159.367 352.795C157.558 358.82 152.231 363.551 148.249 367.639C144.65 371.333 145.103 372.086 142.653 374.942C141.559 376.219 141.402 376.146 141.278 376.089C141.142 376.026 141.048 375.982 139.771 377.815C138.857 379.123 138.079 380.982 137.162 382.286C135.869 384.124 135.66 384.202 135.401 384.299C135.181 384.382 134.925 384.477 133.939 385.677C130.005 390.465 121.719 405.161 120.063 410.668C118.551 415.67 109.68 429.93 105.294 433.056C105.182 433.137 105.03 433.249 104.914 433.321L103.69 433.997C101.875 434.874 101.193 434.726 99.558 435.977L98.8438 436.6C98.1819 437.245 98.0617 437.547 97.421 438.242C97.281 438.396 97.1721 438.512 97.0236 438.665C96.8751 438.822 96.7592 438.922 96.6107 439.076C96.4551 439.232 96.3349 439.321 96.1779 439.473C94.5303 441.12 94.0098 441.622 93.4597 443.839C92.8063 446.48 90.0768 450.265 89.6398 452.904C89.4197 454.235 89.485 454.709 89.5343 455.068C89.5893 455.467 89.6243 455.722 89.2226 456.856C87.6669 461.258 84.284 461.966 81.8345 465.144C78.2381 469.815 75.5679 475.642 72.6291 480.724C69.3664 486.365 70.6888 484.213 66.9495 487.021L65.4291 488.51C63.5609 490.525 62.8764 490.514 61.1595 493.387C56.8701 500.545 58.751 497.036 55.5916 500.822C53.7955 502.975 52.0277 507.147 50.356 509.618C48.3633 512.555 48.772 511.2 47.1654 513.051C43.9254 516.777 41.9977 522.253 39.2399 526.269C38.3659 527.539 38.8751 526.993 37.8568 527.87L33.0102 530.44C29.6584 532.875 28.9286 534.963 24.8032 537.441C24.683 537.518 24.5147 537.603 24.3903 537.68L23.6039 538.174C21.6848 539.623 22.2774 539.748 20.798 541.526C17.5877 545.389 17.9356 544.202 14.2401 545.687C11.5417 546.768 10.8686 550.607 8.68778 553.138ZM402.253 397.557C399.662 401.965 398.622 403.177 398.276 408.089C397.95 412.746 397.464 421.983 391.269 422.725C391.191 422.734 391.094 422.734 390.999 422.734C390.929 422.734 390.86 422.734 390.8 422.738C390.73 422.739 390.647 422.733 390.565 422.727C390.478 422.721 390.391 422.714 390.317 422.717C388.639 422.734 387.871 422.962 387.212 423.434C380.02 428.608 381.218 436.753 379.02 444.296L378.023 447.801C376.188 453.626 374.572 456.068 370.736 460.161L365.686 464.758C365.458 464.927 364.505 465.531 364.464 465.559L361.4 468.122C359.154 469.886 357.667 469.785 354.687 469.503C350.182 476.332 350.424 477.198 350.707 478.21C350.867 478.781 351.04 479.398 350.384 481.155C349.129 484.516 347.829 484.954 346.668 485.346C345.013 485.904 343.642 486.366 343.096 495.091L340.541 508.558C340.208 509.626 340.151 509.795 339.593 510.851C339.026 511.927 338.25 513.08 337.427 513.925C337.258 514.103 334.996 515.658 334.928 515.689L331.236 517.797C331.083 517.926 330.638 518.308 330.514 518.429L329.577 519.883C329.521 520.045 329.292 520.955 329.163 521.29C327.767 524.951 327.885 526.279 327.986 527.418C328.115 528.874 328.217 530.02 325.081 535.347C324.198 536.845 323.82 536.341 321.787 538.472C317.473 542.997 320.132 539.254 315.564 547.005C314.274 549.197 313.753 554.974 309.288 559.132C309.096 559.313 307.453 560.776 306.356 562.557C303.286 567.553 303.958 568.064 302.656 571.066L300.446 576.593C300.378 576.806 300.343 576.947 300.266 577.16L298.615 580.449C297.229 583.744 298.354 582.99 294.875 588.897C294.126 590.171 293.046 592.261 292.207 593.361C290.832 595.161 290.718 595.089 290.597 595.014C290.487 594.944 290.371 594.871 289.274 596.229C287.984 597.828 286.783 601.12 286.442 602.385L284.75 606.595C284.71 606.737 284.502 608.481 284.502 608.496C284.482 609.344 284.471 609.604 284.47 609.638C284.474 609.576 284.52 608.841 284.626 610.383C284.641 610.612 284.66 610.823 284.677 611.022C284.791 612.353 284.854 613.091 283.589 614.476C283.461 614.616 283.332 614.766 283.188 614.906C281.813 616.281 280.186 616.856 278.704 617.864C276.993 619.024 275.43 621.498 274.024 623.488L273.498 624.285C271.058 628.619 271.382 630.208 271.726 631.895C272.061 633.536 272.415 635.271 270.264 639.716C268.464 643.438 269.211 643.814 266.961 647.552C265.451 650.07 263.876 653.623 261.838 655.106C261.718 655.191 261.553 655.279 261.433 655.36L259.019 656.871C257.725 658.112 257.524 658.902 257.323 660.464L257.23 662.374C257.135 664.439 257.583 665.364 258.32 666.888C258.449 667.154 258.587 667.439 258.733 667.752C257.537 670.786 257.749 671.862 256.142 674.957C254.813 677.522 252.735 680.249 251.462 682.812C249.533 686.692 249.457 689.65 247.862 693.44L244.157 703.122C243.623 705.188 243.012 706.074 242.808 708.166C242.41 712.235 241.132 715.524 240.048 718.316C238.827 721.46 237.85 723.975 238.646 726.267C240.274 726.744 240.913 726.39 242.094 725.736C242.279 725.634 242.477 725.524 242.695 725.409L243.929 724.816C246.363 723.753 247.541 722.44 249.513 720.433L250.232 719.765C252.286 717.786 253.965 715.929 256.44 714.877L260.191 712.762C264.42 710.091 264.226 707.688 263.997 704.857C263.807 702.505 263.593 699.859 265.872 696.519C267.069 694.762 268.206 693.67 270.227 693.359C276.695 692.36 276.032 691.877 280.729 687.965C283.943 685.293 286.751 680.17 287.029 676.015L287.386 672.063C287.502 671.351 287.526 671.305 287.688 670.536L289.024 667.68C291.585 665.123 292.716 665.361 294.527 665.742C295.373 665.921 296.367 666.13 297.723 666.101C298.028 666.094 298.242 666.094 298.399 666.094C298.64 666.095 298.748 666.095 298.848 666.068C298.988 666.03 299.113 665.938 299.57 665.718L300.816 664.84C302.828 663.151 302.066 662.898 303.054 660.633C304.659 656.937 304.446 656.681 304.017 656.165C303.666 655.743 303.171 655.147 303.404 652.358C303.829 647.281 308.32 645.799 309.654 642.294C310.17 640.933 310.1 640.957 310.003 640.989C309.909 641.02 309.79 641.059 310.169 639.826C311.852 634.285 321.446 627.001 323.005 624.355L327.93 615.995C328.597 614.858 328.381 613.907 329.204 611.088L330.645 606.019C332.272 599.569 334.836 602.486 339.038 599.28C341.272 597.575 343.092 595.593 343.904 592.777C343.948 592.62 343.964 592.446 344.005 592.293L345.31 587.632C345.513 586.544 345.625 585.696 345.717 584.994C346.116 581.972 346.16 581.637 351.601 576.332C352.307 575.645 352.397 575.701 352.461 575.741C352.543 575.793 352.581 575.816 353.831 574.188C355.981 571.396 356.591 568.044 359.889 567.041C361.959 566.408 363.308 565.607 364.948 564.237C366.558 562.887 367.948 562.113 368.655 559.95L370.994 548.839C371.025 548.681 371.062 548.505 371.094 548.347L371.395 546.849C372.174 542.952 373.894 540.104 376.184 536.225C379.217 531.071 381.475 532.868 385.191 529.359C390.036 524.782 389.031 519.094 390.389 513.176C391.615 507.849 393.628 509.924 394.81 501.63C395.922 493.833 402.181 492.249 405.761 486.146C410.441 478.173 415.909 470.127 416.552 460.983C416.646 459.648 416.604 459.149 416.713 458.686C416.841 458.143 417.176 457.649 418.179 455.922C420.236 452.373 422.413 448.859 424.475 445.302C426.941 441.04 428.749 440.392 431.051 436.463C433.127 432.921 435.233 429.368 437.274 425.811C440.193 420.724 441.462 420.525 442.69 420.333C444.053 420.121 445.365 419.916 448.824 413.048C449.741 411.23 449.665 410.307 449.558 409.012C449.512 408.46 449.461 407.84 449.478 407.053C449.623 401.102 450.623 400.909 454.357 394.571C456.457 391.002 462.376 378.973 465.722 376.656C469.008 374.372 471.772 375.886 472.451 371.333C472.727 369.488 472.708 368.293 472.69 367.196C472.666 365.67 472.645 364.334 473.423 361.704L473.76 358.816C473.73 358.183 473.595 357.735 473.475 357.341C473.203 356.44 473.016 355.82 474.363 353.906C476.178 351.331 479.498 349.965 481.085 343.607C482.868 336.44 482.253 337.854 485.484 334.531C487.287 332.673 490.594 326.312 492.128 323.694C499.613 310.89 501.952 317.425 504.354 303.513C504.711 301.454 504.812 300.334 505.6 298.599C509.384 290.263 520.773 273.712 526.011 263.986C527.498 261.223 526.305 261.654 527.92 258.398C530.639 252.922 530.74 252.173 530.88 251.141C530.973 250.454 531.083 249.642 531.994 247.227C533.091 244.317 536.787 239.027 538.497 236.038C540.632 232.316 539.478 231.954 543.697 224.887C544.725 223.163 546.12 221.237 546.755 219.367C547.465 217.272 547.55 215.991 548.907 213.723C551.29 209.746 552.932 206.725 553.898 202.438C551.523 201.02 549.385 203.75 546.769 207.091C545.653 208.516 544.451 210.051 543.106 211.424L540.418 214.682C538.711 217.168 539.37 216.02 537.984 217.357C535.63 219.621 535.353 221.925 532.721 224.331L530.25 227.409C529.535 228.614 528.783 230.201 527.92 231.273L517.438 242.279C515.47 244.653 514.129 245.832 512.22 249.14L504.619 258.479C499.922 262.783 501.798 261.4 498.387 265.642C497.389 266.884 497.389 266.847 497.388 266.757C497.388 266.687 497.387 266.586 496.929 267.016L490.611 274.937C489.059 276.58 488.38 278.873 486.862 280.57C485.857 281.688 485.72 281.627 485.615 281.581C485.501 281.53 485.426 281.496 484.302 283.03L479.084 289.703C478.65 290.243 478.558 290.512 478.055 291.076C476.227 293.139 475.721 293.26 474.138 295.762L471.249 298.965C468.378 301.829 464.568 310.242 462.006 314.177C459.873 317.453 459.209 316.164 457.011 320.196C454.786 324.261 454.758 327.799 452.034 330.642C451.909 330.768 451.781 330.881 451.657 330.998C448.92 333.495 444.453 333.451 443.184 337.322C442.661 338.919 443.136 342.133 442.617 344.132C441.573 348.184 435.651 355.581 432.625 358.136L429.93 360.343C426.961 363.123 425.246 368.163 422.94 371.491C419.235 376.834 418.251 372.018 415.523 382.368C415.244 383.432 415.343 383.298 415.406 383.214C415.467 383.131 415.493 383.096 415.09 384.29C414.531 385.947 413.8 386.652 413.213 388.154C412.675 389.533 412.618 390.494 412.571 391.291C412.479 392.845 412.424 393.774 408.914 395.95C407.099 397.074 408.312 396.808 405.954 397.388C405.704 397.448 404.451 397.562 404.145 397.573C403.848 397.583 403.765 397.58 403.644 397.576C403.555 397.573 403.446 397.569 403.214 397.569L402.253 397.557ZM559.541 423.605C559.439 423.271 559.792 422.799 563.22 416.977C564.282 415.169 563.922 416.718 565.79 414.694C567.586 412.743 569.766 411.974 571.385 409.822C573.899 406.466 574.348 401.255 576.364 399.85C578.44 398.398 582.701 396.825 585.014 394.865C586.786 393.356 587.118 391.774 588.434 389.82C590.931 386.105 589.705 389.239 592.032 385.984C593.304 384.201 594.402 381.663 595.624 379.808C597.741 376.601 597.175 378.424 599.232 375.889L604.816 368.956C605.813 367.757 605.816 367.81 605.82 367.903C605.825 367.991 605.831 368.114 606.651 367.286C608.379 365.543 608.901 363.479 610.411 361.668C611.582 360.272 612.653 359.911 613.968 357.737C615.13 355.818 615.815 354.003 617.383 352.539C618.829 351.182 620.713 350.704 622 350.76C621.123 352.57 621.184 352.675 621.266 352.815C621.316 352.9 621.373 352.998 621.231 353.504C621.182 353.677 621.147 353.838 621.095 354.011L618.477 361.681C614.649 372.69 610.284 374.516 608.681 380.907C608.532 381.494 608.556 382.44 607.405 384.568C605.113 388.829 605.338 390.362 602.15 395.738C600.623 398.31 598.964 400.969 597.505 403.556C595.172 407.684 597.096 406.627 594.654 410.779C592.611 414.268 592.113 415.753 591.383 419.19L591.147 420.288C589.115 427.925 575.602 444.125 572.104 457.275C571.201 460.664 571.145 462.3 571.09 463.891C571.048 465.094 571.007 466.272 570.603 468.163C569.41 473.773 561.953 480.956 560.9 487.128C560.616 488.777 560.743 490.265 560.87 491.765C560.964 492.878 561.059 493.996 560.987 495.19C560.739 499.331 557.011 502.458 555.272 504.663C553.159 507.334 552.702 508.779 552.986 511.793L553.231 515.101C553.275 516.533 553.316 516.734 553.245 516.881C553.169 517.04 552.965 517.137 552.497 518.638L552.202 519.656C552.156 519.818 552.132 519.987 552.093 520.143C551.628 521.989 550.334 524.095 549.215 525.104C546.434 527.615 546.602 529.14 544.428 532.017C540.264 537.53 531.994 536.436 531.277 548.556C531.232 549.334 531.254 550.02 531.275 550.684C531.321 552.124 531.364 553.461 530.707 555.408C529.16 559.979 529.128 561.141 525.028 564.433L522.121 566.469C516.404 571.313 516.546 572.259 516.846 574.255C516.903 574.634 516.966 575.051 516.995 575.539C516.999 575.64 516.883 578.126 516.838 578.303C516.265 580.553 514.546 582.834 513.311 584.927C512.273 586.054 508.609 585.067 503.126 590.925L498.264 595.799C496.344 597.738 495.614 599.215 494.006 602.032C491.249 606.852 489.348 607.661 485.489 614.244C478.802 625.654 477.901 625.891 475.69 626.47C474.764 626.713 473.607 627.016 471.699 628.227C469.138 629.853 469.684 630.673 467.322 632.93C464.617 635.522 464.211 638.532 462.34 640.664L459.767 643.839C456.378 647.46 452.126 648.254 447.986 652.61C447.833 652.768 447.721 652.869 447.569 653.029C445.296 655.38 444.13 656.924 440.813 657.242C440.239 653.32 440.283 653.236 440.774 652.3C441.047 651.78 441.458 650.998 441.977 649.151C442.148 648.543 442.086 648.641 442.033 648.724C441.97 648.824 441.92 648.903 442.305 647.702L444.646 641.054C446.555 637.102 446.331 636.365 446.133 635.715C445.974 635.192 445.832 634.725 446.826 632.693C448.165 629.965 450.542 627.329 451.312 624.473C452.367 620.538 454.532 618.437 454.635 614.301L458.098 596.29C458.159 596.081 458.211 595.932 458.27 595.73C459.397 592.129 460.352 589.602 462.36 586.218C463.818 583.755 463.754 582.733 464.255 581.119C464.912 579.003 466.448 576.996 467.602 575.064C469.289 572.241 469.294 570.361 469.298 568.601C469.301 567.246 469.305 565.962 470.075 564.373C470.886 562.703 473.752 560.869 475.155 559.005C475.88 558.044 476.208 556.715 476.533 555.138L476.907 553.234C476.934 553.078 476.975 552.901 477.006 552.743L477.639 547.413C477.781 544.773 478.362 542.137 479.14 539.82C479.837 537.743 479.717 536.73 480.073 534.488C480.835 529.707 486.014 530.001 488.126 525.832C490.294 521.559 490.102 516.002 495.622 512.578L500.063 509.154C503.936 505.295 507.439 498.298 510.549 493.01C509.584 491.725 509.921 491.705 509.944 491.61C509.963 491.526 509.742 491.385 508.192 490.286C510.838 485.783 508.653 484.279 514.373 479.361C514.53 479.228 514.983 478.838 515.138 478.706L515.905 478.054C519.953 474.629 522.125 471.104 524.904 466.364C529.761 458.083 528.166 461.609 531.096 457.962C533.606 454.844 534.483 450.345 537.983 448.37L538.821 447.963C540.537 447.171 541.562 446.748 542.589 445.3C546.805 439.341 546.176 443.892 550.105 436.979C553.259 431.43 557.111 432.604 558.975 428.75L559.701 424.726C559.766 423.912 559.593 423.777 559.541 423.605Z" id="path_1" />
    <clipPath id="mask_1">
      <use xlink:href="#path_1" />
    </clipPath>
  </defs>
  <g id="pazur">
    <path d="M398.742 141.796C400.497 138.956 402.883 138.175 406.115 138.412C407.918 135.355 410.638 129.677 412.908 127.409C413.602 126.711 413.59 126.834 413.58 126.936C413.568 127.059 413.559 127.153 414.788 125.751C417.528 122.624 417.372 121.082 417.697 117.992C417.96 115.562 418.274 114.967 420.347 112.886L421.617 111.68C421.767 111.526 421.867 111.406 422.012 111.252C428.77 104.054 434.174 91.336 437.322 88.4431C440.292 85.7149 442.86 86.4034 445.436 83.0435C446.498 81.6595 445.995 82.0698 447.182 80.9342C448.841 79.3416 450.817 75.6311 452.443 73.9533L456.049 69.9746C460.588 64.9085 461.088 62.917 462.742 61.2307C465.447 58.4784 468.944 51.7232 471.596 49.2079L480.614 39.1738C487.276 31.0616 483.569 35.1979 487.522 29.8309C489.34 27.3596 492.6 24.7407 494.754 22.0083L511.354 2.09893C511.476 1.99389 511.613 1.87324 511.738 1.76536C511.919 1.60617 512.087 1.45422 512.245 1.31104C513.613 0.0754159 514.257 -0.506775 516.441 0.550306C515.59 2.77176 513.883 4.82713 513.247 7.00032C511.549 12.7818 506.924 19.4376 503.615 25.0303C499.197 32.5094 492.295 42.1504 490.084 49.7033C488.676 54.5067 482.76 60.4912 481.46 65.6083C479.859 71.9136 466.476 92.3665 462.79 98.5781C460.959 101.664 461.261 102.699 460.142 105.286C459.401 107 457.587 109.7 456.571 111.414C453.456 116.673 440.112 137.697 438.798 141.897C437.085 147.397 435.387 148.955 432.5 154.33C431.684 155.847 431.663 155.99 431.593 156.459C431.563 156.661 431.525 156.923 431.41 157.381L428.637 165.496C427.63 167.471 425.924 169.652 424.971 171.632C424.076 173.487 424.072 173.73 424.067 174.049C424.064 174.233 424.06 174.442 423.883 175.005L420.325 186.225C419.228 188.829 417.304 190.265 415.271 191.919L414.503 192.526C413.768 193.199 413.599 193.174 413.552 193.238C413.536 193.259 413.534 193.29 413.529 193.359C413.52 193.507 413.498 193.827 413.312 194.594C413.275 194.728 413.251 194.921 413.222 195.066C412.956 196.369 413.003 197.281 413.045 198.117C413.114 199.466 413.172 200.615 411.886 202.884C408.179 209.431 395.502 228.776 393.554 234.099C390.774 241.715 390.218 242.275 390.117 242.908C390.093 243.061 390.095 243.219 390.099 243.482C390.109 244.21 390.131 245.746 389.634 250.23C389.49 251.541 389.152 252.348 388.821 253.137C388.411 254.114 388.014 255.061 388.017 256.897C388.017 258.567 388.958 260.422 389.096 261.779C389.217 262.994 389.316 263.225 389.33 263.256L389.332 263.26L389.33 263.259C389.308 263.242 389.1 263.077 388.528 264.896C387.275 268.875 387.164 269.495 386.794 269.824C386.483 270.101 385.99 270.173 384.483 271.861C381.991 274.653 379.139 280.416 379.038 283.244C379.025 283.615 379.016 283.975 379.007 284.326C378.911 288.201 378.846 290.833 374.056 292.249C370.469 293.308 372.49 293.92 369.298 294.144C368.63 294.19 368.452 294.136 368.287 294.086C368.063 294.018 367.863 293.957 366.485 294.168C362.399 294.793 357.546 295.569 354.89 299.21C354.173 300.188 353.578 301.431 353.264 302.534C352.938 303.682 352.994 303.598 353.056 303.505C353.109 303.426 353.167 303.341 352.999 303.995C352.962 304.147 352.942 304.32 352.894 304.469C351.617 308.629 349.984 308.888 349.774 313.941L349.327 319.571C349.066 320.472 348.531 321.356 348.052 322.198C345.698 326.302 342.401 327.923 341.298 332.526C340.493 335.882 337.817 338.103 337.499 341.664C337.221 344.798 337.793 345.858 338.211 346.634C338.871 347.858 339.15 348.374 335.105 355.216C334.21 355.186 333.449 355.121 332.777 355.064C330.194 354.844 328.932 354.736 326.427 357.166C323.446 360.056 322.242 364.487 319.71 367.785C316.768 371.621 315.127 368.86 306.221 383.9C303.125 389.123 302.404 389.671 302.11 395.143L302.062 396.101C301.43 402.727 298.236 404.292 296.972 409.137C296.547 410.769 297.264 412.532 297.963 414.25C299.091 417.024 300.172 419.681 296.319 421.485C292.982 423.046 289.799 421.916 287.529 424.652C286.794 425.545 286.656 426.08 285.787 427.042C284.477 428.487 283.016 429.653 281.627 430.762C278.457 433.291 275.66 435.523 275.887 440.103C275.891 440.236 275.915 440.425 275.926 440.561C276.106 442.844 275.706 443.894 275.16 445.325C274.911 445.98 274.631 446.714 274.362 447.684L274.147 448.649C273.716 450.46 273.853 451.976 273.987 453.45C274.155 455.303 274.316 457.089 273.335 459.312C272.751 460.633 272.7 460.831 272.583 460.884C272.561 460.894 272.537 460.898 272.507 460.904C272.391 460.928 272.184 460.969 271.664 461.391L267.978 463.637C267.858 463.694 267.68 463.771 267.555 463.826C259.685 467.317 260.234 469.745 261.029 473.259C261.296 474.44 261.591 475.744 261.604 477.253C261.634 481.184 260.353 481.83 258.763 482.632C257.841 483.097 256.814 483.615 255.88 484.858C254.347 486.906 254.496 488.415 252.419 489.505L248.02 491.058C247.843 491.167 246.917 491.795 246.768 491.935L246.092 492.696C244.919 494.475 244.95 494.463 245.145 494.387C245.308 494.323 245.584 494.216 245.375 495.058C244.442 498.813 241.773 502.107 239.081 503.656C235.508 505.717 234.003 508.38 231.873 511.998L222.021 528.748C221.494 529.638 220.975 530.555 220.29 531.32C219.235 532.497 219.208 532.424 219.179 532.344C219.154 532.274 219.127 532.199 218.403 532.956C216.945 534.485 216.499 536.22 214.918 537.897L212.849 539.897C211.916 541.224 211.893 541.63 211.862 542.192C211.843 542.536 211.82 542.938 211.585 543.643C211.513 543.861 211.476 543.998 211.392 544.215C210.961 545.321 211.371 544.347 210.864 545.362C209.254 548.576 207.404 551.679 204.763 554.001L196.122 562.366C194.855 563.529 193.587 565.778 193.1 567.725L191.272 574.755C188.855 586.838 187.293 584.991 181.264 589.151C180.833 589.454 180.51 589.772 180.089 590.121C176.329 593.244 168.192 607.447 166.92 612.186L166.107 614.335C163.829 618.849 164.255 620.294 162.842 622.033L162.665 622.251C162.084 622.963 162.014 623.05 161.948 623.046C161.939 623.046 161.93 623.044 161.92 623.041C161.855 623.025 161.74 622.997 161.232 623.32C155.2 627.179 154.919 633.69 150.472 638.035L149.618 638.734C146.89 640.807 147.03 639.894 144.72 643.813L141.952 647.349C141.834 647.458 141.693 647.563 141.577 647.671C141.456 647.788 141.327 647.904 141.202 648.022C137.926 651.24 136.421 653.316 134.164 657.13C133.021 659.054 132.537 660.994 132.168 662.241L128.996 670.039C128.042 673.089 126.126 674.353 123.841 675.961C120.178 678.537 121.393 681.165 115.566 684.464L112.237 685.985C104.757 689.408 104.485 690.614 103.911 693.163C103.682 694.18 103.404 695.411 102.602 697.083C99.5479 703.452 100.094 705.878 95.7286 713.262C90.863 721.497 93.0878 720.028 88.3514 722.137C83.4445 724.318 84.1374 730.132 76.8567 732.349C73.682 733.318 73.6607 735.331 70.6067 737.161L69.806 737.636C69.6853 737.709 69.5277 737.801 69.407 737.882L67.7416 739.081C65.4628 740.924 63.0761 742.501 61.2531 744.835L57.688 749.229C54.3472 752.427 54.3316 754.833 49.9885 756C49.7556 753.574 50.3988 751.732 51.6581 749.622C52.4277 748.331 53.3576 747.076 53.8844 745.664L60.2351 728.844C62.4287 721.396 65.4387 718.637 66.4808 715.051C66.7568 714.096 66.6666 713.953 66.6002 713.847C66.5087 713.702 66.4624 713.628 67.4789 711.608C69.4794 707.619 72.9892 703.555 74.2485 699.375C74.3096 699.171 74.3295 699.017 74.3891 698.816C76.249 692.383 75.1629 694.298 79.6863 690.045C82.2746 687.611 84.2425 683.84 84.3305 680.097C84.3356 679.883 84.2867 679.536 84.2324 679.15C84.1496 678.562 84.0541 677.884 84.1175 677.446C84.4029 675.434 86.4872 672.212 87.9723 670.723C88.6033 670.092 88.771 670.092 88.9023 670.092C89.0927 670.092 89.2063 670.092 90.545 668.168C91.1484 667.298 91.9534 665.758 92.5085 664.784C93.9823 662.192 96.0949 660.216 97.1853 658.97C98.4469 657.535 98.4019 657.112 98.2672 655.85C98.2395 655.591 98.2081 655.296 98.1835 654.95L98.5654 651.481C99.6359 646.581 99.2057 642.412 100.022 640.723C103.528 633.46 106.671 637.918 109.955 633.106C112.672 629.135 114.568 624.033 114.801 619.364C114.842 618.568 114.869 616.971 115.071 616.105C115.377 614.778 115.722 614.32 116.089 612.971C117.224 608.771 120.842 606.381 124.078 603.624C125.361 602.53 125.451 602.984 125.848 601.009L125.929 599.573C126.012 597.913 126.395 596.948 126.733 596.096C127.196 594.927 127.575 593.971 126.98 591.722C126.812 591.083 126.629 590.519 126.46 589.995C126.049 588.722 125.714 587.688 125.848 586.412C126.649 578.738 132.376 576.444 133.35 570.924C133.539 569.86 133.529 569.748 133.515 569.59C133.51 569.533 133.505 569.469 133.508 569.351C133.513 569.031 133.458 568.445 133.427 568.115C133.416 567.988 133.407 567.899 133.407 567.878C133.407 560.575 135.516 562.768 140.052 558.965C140.671 558.447 141.05 558.061 141.577 557.605C142.434 556.857 143.468 556 144.514 554.366C149.783 546.134 149.479 544.793 149.004 542.705C148.719 541.45 148.373 539.924 149.139 536.469C149.364 535.443 149.18 535.23 150.125 534.244C155.526 528.587 158.227 533.77 162.042 523.115C162.285 522.436 162.323 522.208 162.338 522.111C162.344 522.078 162.347 522.06 162.355 522.045C162.385 521.987 162.49 521.969 163.105 521.24L167.523 515.264C169.158 512.843 170.832 513.06 173.174 511.555C173.303 511.47 173.923 511.048 174.109 510.935C174.143 509.973 174.079 509.506 174.01 509C173.943 508.512 173.871 507.988 173.879 506.948C173.967 496.837 179.26 497.219 183.577 493.955L185.667 491.517C186.472 490.008 186.451 489.079 186.753 487.538C188.258 479.812 186.821 484.698 189.55 476.155C190.741 472.416 192.847 462.724 193.132 458.531C193.262 456.709 193.683 453.34 195.635 452.597L196.98 452.101C199.615 451.248 204.513 449.763 206.047 447.929C207.996 445.591 207.965 444.263 207.924 442.485C207.888 440.899 207.843 438.955 209.186 435.617C210.592 432.128 210.072 429.336 212.27 426.004C213.299 424.438 213.423 424.18 213.556 424.175C213.581 424.174 213.607 424.182 213.638 424.192C213.767 424.232 214.002 424.306 214.749 423.943L221.422 422.009C222.495 421.851 224.004 421.087 225.103 420.125C225.14 419.461 225.233 418.122 225.237 417.811C225.256 417.006 225.314 416.852 225.322 416.696C225.329 416.56 225.298 416.424 225.173 415.864C225.146 415.744 225.115 415.605 225.079 415.442C224.976 414.958 224.528 413.896 224.271 413.337L223.469 411.651C224.138 410.521 225.691 407.576 226.444 406.758C229.438 403.512 232.332 405.834 236.626 398.41C237.612 396.708 238.618 395.05 239.621 393.364C241.496 390.197 242.361 387.473 242.453 383.973C242.474 383.212 242.378 382.633 242.293 382.116C242.191 381.5 242.104 380.974 242.249 380.339L243.936 376.15C243.975 375.994 243.987 375.821 244.028 375.668C245.935 368.454 246.93 366.643 253.066 361.585C253.928 360.875 253.893 360.803 253.89 360.795L253.889 360.794L253.891 360.794C253.905 360.793 254.008 360.789 254.645 360.506C255.665 360.057 255.721 360.097 255.787 360.144C255.837 360.181 255.893 360.221 256.4 360.044C262.508 357.927 262.062 353.896 263.076 350.4C263.173 350.064 263.237 349.822 263.277 349.653C263.313 349.577 263.352 349.494 263.394 349.402C263.466 349.253 263.539 349.091 263.62 348.955L268.932 342.549C271.311 340.356 272.901 336.864 274.941 334.941L275.694 334.204C276.374 333.507 277.152 332.803 277.955 332.076C280.945 329.37 284.275 326.356 284.19 322.27C284.173 321.489 284.092 320.964 284.012 320.451C283.914 319.817 283.818 319.201 283.852 318.141C283.891 316.935 283.988 316.701 284.093 315.615C284.244 314.008 284.161 312.973 284.092 312.117C283.944 310.29 283.863 309.286 286.278 305.302C290.073 299.041 293.756 292.668 297.483 286.358C298.248 285.778 298.952 285.871 299.711 285.97C301.272 286.175 303.061 286.411 306.087 280.866C307.777 277.767 307.299 275.332 306.944 273.524C306.478 271.147 306.224 269.855 311.387 269.56C314.069 265.018 313.929 264.227 313.46 261.593C313.275 260.551 313.039 259.222 312.905 257.259L312.848 256.31C312.782 252.235 314.948 251.262 317.438 250.142C319.93 249.022 322.747 247.756 323.977 243.089C323.985 243.052 324.448 240.637 324.448 240.63L324.645 239.644C324.677 239.447 324.766 238.883 324.79 238.687L325.881 228.402C326.769 224.785 331.849 225.074 334.706 223.932L338.336 221.763C342.156 219.231 342.581 218.754 343.057 218.697C343.162 218.684 343.27 218.692 343.417 218.703C343.801 218.731 344.455 218.779 346.04 218.532C349.722 217.956 350.941 214.28 351.907 210.806C353.256 205.95 358.141 203.939 364.561 193.03C371.125 181.872 370.529 187.293 372.554 180.086C373.721 175.93 378.7 168.932 380.997 165.122C383.432 161.087 388.697 160.065 391.454 156.113C392.671 154.365 392.563 154.308 392.371 154.208C392.173 154.104 391.886 153.954 392.849 151.884C394.078 149.257 397.125 144.412 398.742 141.796ZM263.277 349.653C262.789 350.69 262.869 350.351 263.031 349.923C263.193 349.494 263.437 348.976 263.277 349.653ZM8.68778 553.138C4.89474 557.524 3.57241 558.337 0.0806126 556.265C0.0480847 556.111 0.0395992 555.898 0.0367707 555.802C0.0325279 555.71 0.00848554 555.451 0 555.339L1.3591 541.36C1.55568 535.78 5.68107 533.921 7.54081 530.763C8.95224 528.361 8.60716 524.94 9.81352 522.321C11.2815 519.139 14.2953 515.485 15.6346 512.31C16.1822 511.015 16.2251 510.561 16.2644 510.145C16.3128 509.632 16.3557 509.178 17.3345 507.276C18.5847 504.838 18.7743 505.293 19.4474 502.633L20.0131 500.596C20.0725 500.416 20.1532 500.259 20.2097 500.078C20.9706 497.704 20.4332 496.131 21.392 493.782L23.9971 485.983C24.0579 485.806 24.0933 485.632 24.1611 485.464C25.2926 482.68 27.9019 481.287 28.9767 478.21C29.7305 476.037 29.8861 473.747 32.2875 471.337C35.1018 468.512 38.4649 463.97 38.7421 459.424C38.9387 456.139 44.6028 446.169 47.2814 443.389C48.233 442.397 48.1984 442.533 48.1698 442.645C48.141 442.758 48.1184 442.846 49.1086 441.743C49.7182 441.063 49.9388 440.6 50.5285 439.896L52.4972 437.76C53.4901 436.333 53.4146 434.191 53.335 431.93C53.2748 430.22 53.2121 428.442 53.6074 426.851L55.3158 422.413C57.9732 417.601 62.4069 414.684 64.046 409.095C64.162 408.7 64.1752 408.527 64.187 408.372C64.2095 408.077 64.227 407.848 64.937 406.279C66.5888 402.606 67.5901 400.525 68.5278 396.985C70.0919 391.065 75.3671 383.661 79.757 379.255L84.3561 374.681C86.701 372.206 86.9697 369.941 87.5184 367.004C87.6603 366.242 87.6947 365.611 87.7271 365.017C87.792 363.828 87.8489 362.784 88.7417 361.129C90.8264 357.278 93.3437 351.822 96.4706 348.773L100.692 343.63C103.157 341.011 105.615 339.728 107.536 336.134C108.922 333.533 108.922 333.417 108.928 331.692C108.929 331.562 108.929 331.423 108.93 331.274L108.762 325.729C108.79 325.576 108.83 325.398 108.862 325.242C108.898 325.08 108.95 324.912 108.991 324.743C109.741 321.574 109.393 319.608 109.132 318.136C108.876 316.689 108.704 315.72 109.743 314.555L112.979 312.568C121.602 308.906 117.089 306.219 121.899 301.583C123.523 300.014 123.367 299.929 125.166 299.33C130.402 297.592 130.74 294.702 131.198 290.777C131.329 289.65 131.471 288.439 131.741 287.146C131.912 286.333 131.692 286.311 131.589 286.3C131.566 286.298 131.55 286.296 131.543 286.287C131.524 286.259 131.606 286.162 131.938 285.764C132.063 285.615 132.223 285.424 132.427 285.178C133.072 284.397 134.575 283.81 135.61 283.384C135.733 283.336 135.918 283.292 136.039 283.239C138.276 282.27 137.594 282.857 139.33 279.908C141.202 276.738 140.92 275.968 140.498 274.819C140.224 274.074 139.892 273.169 140.051 271.346C140.068 271.172 140.092 270.995 140.116 270.817C140.525 267.663 141.375 266.15 143.752 263.961C145.588 262.268 149.191 258.961 149.989 257.009C151.417 253.504 150.327 241.936 154.143 240.13C155.178 239.635 156.78 239.615 157.943 238.766C160.525 236.891 162.253 233.543 164.779 231.93L171.569 226.748C173.133 225.066 173.582 223.934 174.123 221.963C174.801 219.5 176.055 216.554 178.085 214.407C181.736 210.543 182.571 207.422 185.765 203.084C187.269 201.036 191.305 197.857 193.614 195.676C193.73 195.568 193.879 195.463 193.988 195.355C196.492 192.803 194.357 192.272 196.641 189.548C198.137 187.774 201.256 185.243 203.135 182.543C207.016 176.959 206.819 177.876 211.559 174.202L214.233 171.969C216.923 169.414 220.454 163.068 221.617 159.874C221.976 158.886 221.93 158.365 221.897 157.993C221.829 157.227 221.817 157.095 225.53 154.808C229.194 152.547 231.146 153.041 233.917 148.257C237.949 141.301 241.438 138.226 243.133 134.879C244.471 132.243 244.399 129.519 246.957 126.977C247.113 126.819 247.233 126.731 247.39 126.578C252.67 121.343 254.575 122.236 258.15 116.024C260.78 111.454 263.062 108.302 265.583 105.317C265.732 105.136 265.815 105.015 265.959 104.83C266.56 104.078 266.654 103.727 267.347 102.975C268.12 102.131 269.68 101.253 270.819 100.556C277.613 96.4045 278.122 92.0312 285.427 85.831L290.514 80.4626C292.178 78.8657 292.174 78.041 293.54 76.1333C294.7 74.5165 295.478 73.9075 297.125 72.613L299.105 71.2801C299.522 71.0033 300.296 70.4639 300.652 70.1744L305.495 65.5072C306 64.9989 306.589 64.1866 307.263 63.2569C309.668 59.9386 313.157 55.1251 317.81 57.3027C315.786 60.7392 316.648 61.6193 313.765 66.3844C311.141 70.7138 310.614 75.1027 307.555 79.1879C306.392 80.7424 306.237 80.7427 306.059 80.743C305.89 80.7433 305.699 80.7437 304.614 82.0595C302.145 85.0659 302.997 87.0177 301.057 90.325C298.135 95.3215 299.214 95.1895 297.434 98.7268C292.17 109.192 273.588 136.307 271.188 143.816C268.669 151.674 261.277 159.958 259.36 166.006C256.959 173.575 251.511 180.885 247.53 187.883C246.223 190.183 246.218 190.33 246.152 192.236C246.145 192.439 246.137 192.663 246.127 192.912C245.839 200.138 238.366 196.71 235.929 210.146C235.892 210.346 235.796 210.931 235.756 211.131C234.782 216.161 219.111 240.793 216.462 245.267C215.675 246.583 214.465 248.406 213.824 249.721C213.077 251.267 213.407 250.636 213.022 251.932C211.57 256.86 210.649 257.573 209.658 262.365C209.518 263.04 208.884 266.231 208.748 266.702C208.244 268.416 207.642 269.12 207.14 270.938C206.223 274.302 205.489 276.118 202.908 278.427C201.548 279.646 200.947 281.32 200.353 283.231L196.785 293.032C196.746 293.19 196.709 293.363 196.678 293.516C196.641 293.668 196.613 293.845 196.582 293.994C196.149 296.082 196.509 296.71 195.655 298.412C195.068 299.578 194.97 299.596 194.792 299.628C194.708 299.644 194.606 299.662 194.425 299.808L189.602 302.794C184.122 306.153 174.512 325.471 170.251 332.791C166.77 338.757 166.274 337.844 164.675 340.13C163.293 342.104 163.388 342.266 163.547 342.539C163.663 342.737 163.813 342.993 163.455 344.044C162.457 346.986 160.317 349.65 159.367 352.795C157.558 358.82 152.231 363.551 148.249 367.639C144.65 371.333 145.103 372.086 142.653 374.942C141.559 376.219 141.402 376.146 141.278 376.089C141.142 376.026 141.048 375.982 139.771 377.815C138.857 379.123 138.079 380.982 137.162 382.286C135.869 384.124 135.66 384.202 135.401 384.299C135.181 384.382 134.925 384.477 133.939 385.677C130.005 390.465 121.719 405.161 120.063 410.668C118.551 415.67 109.68 429.93 105.294 433.056C105.182 433.137 105.03 433.249 104.914 433.321L103.69 433.997C101.875 434.874 101.193 434.726 99.558 435.977L98.8438 436.6C98.1819 437.245 98.0617 437.547 97.421 438.242C97.281 438.396 97.1721 438.512 97.0236 438.665C96.8751 438.822 96.7592 438.922 96.6107 439.076C96.4551 439.232 96.3349 439.321 96.1779 439.473C94.5303 441.12 94.0098 441.622 93.4597 443.839C92.8063 446.48 90.0768 450.265 89.6398 452.904C89.4197 454.235 89.485 454.709 89.5343 455.068C89.5893 455.467 89.6243 455.722 89.2226 456.856C87.6669 461.258 84.284 461.966 81.8345 465.144C78.2381 469.815 75.5679 475.642 72.6291 480.724C69.3664 486.365 70.6888 484.213 66.9495 487.021L65.4291 488.51C63.5609 490.525 62.8764 490.514 61.1595 493.387C56.8701 500.545 58.751 497.036 55.5916 500.822C53.7955 502.975 52.0277 507.147 50.356 509.618C48.3633 512.555 48.772 511.2 47.1654 513.051C43.9254 516.777 41.9977 522.253 39.2399 526.269C38.3659 527.539 38.8751 526.993 37.8568 527.87L33.0102 530.44C29.6584 532.875 28.9286 534.963 24.8032 537.441C24.683 537.518 24.5147 537.603 24.3903 537.68L23.6039 538.174C21.6848 539.623 22.2774 539.748 20.798 541.526C17.5877 545.389 17.9356 544.202 14.2401 545.687C11.5417 546.768 10.8686 550.607 8.68778 553.138ZM402.253 397.557C399.662 401.965 398.622 403.177 398.276 408.089C397.95 412.746 397.464 421.983 391.269 422.725C391.191 422.734 391.094 422.734 390.999 422.734C390.929 422.734 390.86 422.734 390.8 422.738C390.73 422.739 390.647 422.733 390.565 422.727C390.478 422.721 390.391 422.714 390.317 422.717C388.639 422.734 387.871 422.962 387.212 423.434C380.02 428.608 381.218 436.753 379.02 444.296L378.023 447.801C376.188 453.626 374.572 456.068 370.736 460.161L365.686 464.758C365.458 464.927 364.505 465.531 364.464 465.559L361.4 468.122C359.154 469.886 357.667 469.785 354.687 469.503C350.182 476.332 350.424 477.198 350.707 478.21C350.867 478.781 351.04 479.398 350.384 481.155C349.129 484.516 347.829 484.954 346.668 485.346C345.013 485.904 343.642 486.366 343.096 495.091L340.541 508.558C340.208 509.626 340.151 509.795 339.593 510.851C339.026 511.927 338.25 513.08 337.427 513.925C337.258 514.103 334.996 515.658 334.928 515.689L331.236 517.797C331.083 517.926 330.638 518.308 330.514 518.429L329.577 519.883C329.521 520.045 329.292 520.955 329.163 521.29C327.767 524.951 327.885 526.279 327.986 527.418C328.115 528.874 328.217 530.02 325.081 535.347C324.198 536.845 323.82 536.341 321.787 538.472C317.473 542.997 320.132 539.254 315.564 547.005C314.274 549.197 313.753 554.974 309.288 559.132C309.096 559.313 307.453 560.776 306.356 562.557C303.286 567.553 303.958 568.064 302.656 571.066L300.446 576.593C300.378 576.806 300.343 576.947 300.266 577.16L298.615 580.449C297.229 583.744 298.354 582.99 294.875 588.897C294.126 590.171 293.046 592.261 292.207 593.361C290.832 595.161 290.718 595.089 290.597 595.014C290.487 594.944 290.371 594.871 289.274 596.229C287.984 597.828 286.783 601.12 286.442 602.385L284.75 606.595C284.71 606.737 284.502 608.481 284.502 608.496C284.482 609.344 284.471 609.604 284.47 609.638C284.474 609.576 284.52 608.841 284.626 610.383C284.641 610.612 284.66 610.823 284.677 611.022C284.791 612.353 284.854 613.091 283.589 614.476C283.461 614.616 283.332 614.766 283.188 614.906C281.813 616.281 280.186 616.856 278.704 617.864C276.993 619.024 275.43 621.498 274.024 623.488L273.498 624.285C271.058 628.619 271.382 630.208 271.726 631.895C272.061 633.536 272.415 635.271 270.264 639.716C268.464 643.438 269.211 643.814 266.961 647.552C265.451 650.07 263.876 653.623 261.838 655.106C261.718 655.191 261.553 655.279 261.433 655.36L259.019 656.871C257.725 658.112 257.524 658.902 257.323 660.464L257.23 662.374C257.135 664.439 257.583 665.364 258.32 666.888C258.449 667.154 258.587 667.439 258.733 667.752C257.537 670.786 257.749 671.862 256.142 674.957C254.813 677.522 252.735 680.249 251.462 682.812C249.533 686.692 249.457 689.65 247.862 693.44L244.157 703.122C243.623 705.188 243.012 706.074 242.808 708.166C242.41 712.235 241.132 715.524 240.048 718.316C238.827 721.46 237.85 723.975 238.646 726.267C240.274 726.744 240.913 726.39 242.094 725.736C242.279 725.634 242.477 725.524 242.695 725.409L243.929 724.816C246.363 723.753 247.541 722.44 249.513 720.433L250.232 719.765C252.286 717.786 253.965 715.929 256.44 714.877L260.191 712.762C264.42 710.091 264.226 707.688 263.997 704.857C263.807 702.505 263.593 699.859 265.872 696.519C267.069 694.762 268.206 693.67 270.227 693.359C276.695 692.36 276.032 691.877 280.729 687.965C283.943 685.293 286.751 680.17 287.029 676.015L287.386 672.063C287.502 671.351 287.526 671.305 287.688 670.536L289.024 667.68C291.585 665.123 292.716 665.361 294.527 665.742C295.373 665.921 296.367 666.13 297.723 666.101C298.028 666.094 298.242 666.094 298.399 666.094C298.64 666.095 298.748 666.095 298.848 666.068C298.988 666.03 299.113 665.938 299.57 665.718L300.816 664.84C302.828 663.151 302.066 662.898 303.054 660.633C304.659 656.937 304.446 656.681 304.017 656.165C303.666 655.743 303.171 655.147 303.404 652.358C303.829 647.281 308.32 645.799 309.654 642.294C310.17 640.933 310.1 640.957 310.003 640.989C309.909 641.02 309.79 641.059 310.169 639.826C311.852 634.285 321.446 627.001 323.005 624.355L327.93 615.995C328.597 614.858 328.381 613.907 329.204 611.088L330.645 606.019C332.272 599.569 334.836 602.486 339.038 599.28C341.272 597.575 343.092 595.593 343.904 592.777C343.948 592.62 343.964 592.446 344.005 592.293L345.31 587.632C345.513 586.544 345.625 585.696 345.717 584.994C346.116 581.972 346.16 581.637 351.601 576.332C352.307 575.645 352.397 575.701 352.461 575.741C352.543 575.793 352.581 575.816 353.831 574.188C355.981 571.396 356.591 568.044 359.889 567.041C361.959 566.408 363.308 565.607 364.948 564.237C366.558 562.887 367.948 562.113 368.655 559.95L370.994 548.839C371.025 548.681 371.062 548.505 371.094 548.347L371.395 546.849C372.174 542.952 373.894 540.104 376.184 536.225C379.217 531.071 381.475 532.868 385.191 529.359C390.036 524.782 389.031 519.094 390.389 513.176C391.615 507.849 393.628 509.924 394.81 501.63C395.922 493.833 402.181 492.249 405.761 486.146C410.441 478.173 415.909 470.127 416.552 460.983C416.646 459.648 416.604 459.149 416.713 458.686C416.841 458.143 417.176 457.649 418.179 455.922C420.236 452.373 422.413 448.859 424.475 445.302C426.941 441.04 428.749 440.392 431.051 436.463C433.127 432.921 435.233 429.368 437.274 425.811C440.193 420.724 441.462 420.525 442.69 420.333C444.053 420.121 445.365 419.916 448.824 413.048C449.741 411.23 449.665 410.307 449.558 409.012C449.512 408.46 449.461 407.84 449.478 407.053C449.623 401.102 450.623 400.909 454.357 394.571C456.457 391.002 462.376 378.973 465.722 376.656C469.008 374.372 471.772 375.886 472.451 371.333C472.727 369.488 472.708 368.293 472.69 367.196C472.666 365.67 472.645 364.334 473.423 361.704L473.76 358.816C473.73 358.183 473.595 357.735 473.475 357.341C473.203 356.44 473.016 355.82 474.363 353.906C476.178 351.331 479.498 349.965 481.085 343.607C482.868 336.44 482.253 337.854 485.484 334.531C487.287 332.673 490.594 326.312 492.128 323.694C499.613 310.89 501.952 317.425 504.354 303.513C504.711 301.454 504.812 300.334 505.6 298.599C509.384 290.263 520.773 273.712 526.011 263.986C527.498 261.223 526.305 261.654 527.92 258.398C530.639 252.922 530.74 252.173 530.88 251.141C530.973 250.454 531.083 249.642 531.994 247.227C533.091 244.317 536.787 239.027 538.497 236.038C540.632 232.316 539.478 231.954 543.697 224.887C544.725 223.163 546.12 221.237 546.755 219.367C547.465 217.272 547.55 215.991 548.907 213.723C551.29 209.746 552.932 206.725 553.898 202.438C551.523 201.02 549.385 203.75 546.769 207.091C545.653 208.516 544.451 210.051 543.106 211.424L540.418 214.682C538.711 217.168 539.37 216.02 537.984 217.357C535.63 219.621 535.353 221.925 532.721 224.331L530.25 227.409C529.535 228.614 528.783 230.201 527.92 231.273L517.438 242.279C515.47 244.653 514.129 245.832 512.22 249.14L504.619 258.479C499.922 262.783 501.798 261.4 498.387 265.642C497.389 266.884 497.389 266.847 497.388 266.757C497.388 266.687 497.387 266.586 496.929 267.016L490.611 274.937C489.059 276.58 488.38 278.873 486.862 280.57C485.857 281.688 485.72 281.627 485.615 281.581C485.501 281.53 485.426 281.496 484.302 283.03L479.084 289.703C478.65 290.243 478.558 290.512 478.055 291.076C476.227 293.139 475.721 293.26 474.138 295.762L471.249 298.965C468.378 301.829 464.568 310.242 462.006 314.177C459.873 317.453 459.209 316.164 457.011 320.196C454.786 324.261 454.758 327.799 452.034 330.642C451.909 330.768 451.781 330.881 451.657 330.998C448.92 333.495 444.453 333.451 443.184 337.322C442.661 338.919 443.136 342.133 442.617 344.132C441.573 348.184 435.651 355.581 432.625 358.136L429.93 360.343C426.961 363.123 425.246 368.163 422.94 371.491C419.235 376.834 418.251 372.018 415.523 382.368C415.244 383.432 415.343 383.298 415.406 383.214C415.467 383.131 415.493 383.096 415.09 384.29C414.531 385.947 413.8 386.652 413.213 388.154C412.675 389.533 412.618 390.494 412.571 391.291C412.479 392.845 412.424 393.774 408.914 395.95C407.099 397.074 408.312 396.808 405.954 397.388C405.704 397.448 404.451 397.562 404.145 397.573C403.848 397.583 403.765 397.58 403.644 397.576C403.555 397.573 403.446 397.569 403.214 397.569L402.253 397.557ZM559.541 423.605C559.439 423.271 559.792 422.799 563.22 416.977C564.282 415.169 563.922 416.718 565.79 414.694C567.586 412.743 569.766 411.974 571.385 409.822C573.899 406.466 574.348 401.255 576.364 399.85C578.44 398.398 582.701 396.825 585.014 394.865C586.786 393.356 587.118 391.774 588.434 389.82C590.931 386.105 589.705 389.239 592.032 385.984C593.304 384.201 594.402 381.663 595.624 379.808C597.741 376.601 597.175 378.424 599.232 375.889L604.816 368.956C605.813 367.757 605.816 367.81 605.82 367.903C605.825 367.991 605.831 368.114 606.651 367.286C608.379 365.543 608.901 363.479 610.411 361.668C611.582 360.272 612.653 359.911 613.968 357.737C615.13 355.818 615.815 354.003 617.383 352.539C618.829 351.182 620.713 350.704 622 350.76C621.123 352.57 621.184 352.675 621.266 352.815C621.316 352.9 621.373 352.998 621.231 353.504C621.182 353.677 621.147 353.838 621.095 354.011L618.477 361.681C614.649 372.69 610.284 374.516 608.681 380.907C608.532 381.494 608.556 382.44 607.405 384.568C605.113 388.829 605.338 390.362 602.15 395.738C600.623 398.31 598.964 400.969 597.505 403.556C595.172 407.684 597.096 406.627 594.654 410.779C592.611 414.268 592.113 415.753 591.383 419.19L591.147 420.288C589.115 427.925 575.602 444.125 572.104 457.275C571.201 460.664 571.145 462.3 571.09 463.891C571.048 465.094 571.007 466.272 570.603 468.163C569.41 473.773 561.953 480.956 560.9 487.128C560.616 488.777 560.743 490.265 560.87 491.765C560.964 492.878 561.059 493.996 560.987 495.19C560.739 499.331 557.011 502.458 555.272 504.663C553.159 507.334 552.702 508.779 552.986 511.793L553.231 515.101C553.275 516.533 553.316 516.734 553.245 516.881C553.169 517.04 552.965 517.137 552.497 518.638L552.202 519.656C552.156 519.818 552.132 519.987 552.093 520.143C551.628 521.989 550.334 524.095 549.215 525.104C546.434 527.615 546.602 529.14 544.428 532.017C540.264 537.53 531.994 536.436 531.277 548.556C531.232 549.334 531.254 550.02 531.275 550.684C531.321 552.124 531.364 553.461 530.707 555.408C529.16 559.979 529.128 561.141 525.028 564.433L522.121 566.469C516.404 571.313 516.546 572.259 516.846 574.255C516.903 574.634 516.966 575.051 516.995 575.539C516.999 575.64 516.883 578.126 516.838 578.303C516.265 580.553 514.546 582.834 513.311 584.927C512.273 586.054 508.609 585.067 503.126 590.925L498.264 595.799C496.344 597.738 495.614 599.215 494.006 602.032C491.249 606.852 489.348 607.661 485.489 614.244C478.802 625.654 477.901 625.891 475.69 626.47C474.764 626.713 473.607 627.016 471.699 628.227C469.138 629.853 469.684 630.673 467.322 632.93C464.617 635.522 464.211 638.532 462.34 640.664L459.767 643.839C456.378 647.46 452.126 648.254 447.986 652.61C447.833 652.768 447.721 652.869 447.569 653.029C445.296 655.38 444.13 656.924 440.813 657.242C440.239 653.32 440.283 653.236 440.774 652.3C441.047 651.78 441.458 650.998 441.977 649.151C442.148 648.543 442.086 648.641 442.033 648.724C441.97 648.824 441.92 648.903 442.305 647.702L444.646 641.054C446.555 637.102 446.331 636.365 446.133 635.715C445.974 635.192 445.832 634.725 446.826 632.693C448.165 629.965 450.542 627.329 451.312 624.473C452.367 620.538 454.532 618.437 454.635 614.301L458.098 596.29C458.159 596.081 458.211 595.932 458.27 595.73C459.397 592.129 460.352 589.602 462.36 586.218C463.818 583.755 463.754 582.733 464.255 581.119C464.912 579.003 466.448 576.996 467.602 575.064C469.289 572.241 469.294 570.361 469.298 568.601C469.301 567.246 469.305 565.962 470.075 564.373C470.886 562.703 473.752 560.869 475.155 559.005C475.88 558.044 476.208 556.715 476.533 555.138L476.907 553.234C476.934 553.078 476.975 552.901 477.006 552.743L477.639 547.413C477.781 544.773 478.362 542.137 479.14 539.82C479.837 537.743 479.717 536.73 480.073 534.488C480.835 529.707 486.014 530.001 488.126 525.832C490.294 521.559 490.102 516.002 495.622 512.578L500.063 509.154C503.936 505.295 507.439 498.298 510.549 493.01C509.584 491.725 509.921 491.705 509.944 491.61C509.963 491.526 509.742 491.385 508.192 490.286C510.838 485.783 508.653 484.279 514.373 479.361C514.53 479.228 514.983 478.838 515.138 478.706L515.905 478.054C519.953 474.629 522.125 471.104 524.904 466.364C529.761 458.083 528.166 461.609 531.096 457.962C533.606 454.844 534.483 450.345 537.983 448.37L538.821 447.963C540.537 447.171 541.562 446.748 542.589 445.3C546.805 439.341 546.176 443.892 550.105 436.979C553.259 431.43 557.111 432.604 558.975 428.75L559.701 424.726C559.766 423.912 559.593 423.777 559.541 423.605Z" id="Mask" fill="url(#gradient_1)" fill-rule="evenodd" stroke="none" />
  </g>
</svg>