<?xml version="1.0" encoding="utf-8"?>
<svg width="26px" height="26px" viewBox="0 0 26 26" version="1.1" xmlns:xlink="http://www.w3.org/1999/xlink" xmlns="http://www.w3.org/2000/svg">
  <g id="instagram">
    <path d="M1.52599 3.05516C2.36877 3.05516 3.05198 2.37124 3.05198 1.52758C3.05198 0.683922 2.36877 0 1.52599 0C0.68321 0 0 0.683922 0 1.52758C0 2.37124 0.68321 3.05516 1.52599 3.05516Z" transform="translate(17.7793 4.666016)" id="Oval" fill="#FFFFFF" stroke="none" />
    <path d="M0 6.36492C0 9.87518 2.8517 12.7298 6.3583 12.7298C9.8649 12.7298 12.7166 9.87518 12.7166 6.36492C12.7166 2.85467 9.8649 0 6.3583 0C2.8517 0 0 2.85467 0 6.36492ZM3.17915 6.36492C3.17915 4.6098 4.605 3.18246 6.3583 3.18246C8.1116 3.18246 9.53745 4.6098 9.53745 6.36492C9.53745 8.12005 8.1116 9.54738 6.3583 9.54738C4.605 9.54738 3.17915 8.12005 3.17915 6.36492Z" transform="translate(6.358398 6.365234)" id="Shape" fill="#FFFFFF" fill-rule="evenodd" stroke="none" />
    <path d="M6.3583 25.4597L19.0749 25.4597C22.3431 25.4597 25.4332 22.3663 25.4332 19.0948L25.4332 6.36492C25.4332 3.09335 22.3431 0 19.0749 0L6.3583 0C3.09013 0 0 3.09335 0 6.36492L0 19.0948C0 22.3663 3.09013 25.4597 6.3583 25.4597ZM3.1792 6.3641C3.1792 4.8763 4.8721 3.18164 6.35835 3.18164L19.0749 3.18164C20.5612 3.18164 22.2541 4.8763 22.2541 6.3641L22.2541 19.0939C22.2541 20.5817 20.5612 22.2764 19.0749 22.2764L6.35835 22.2764C4.84348 22.2764 3.1792 20.6104 3.1792 19.0939L3.1792 6.3641Z" id="Shape" fill="#FFFFFF" fill-rule="evenodd" stroke="none" />
  </g>
</svg>
