<?xml version="1.0" encoding="utf-8"?>
<svg width="200px" height="63px" viewBox="0 0 200 63" version="1.1" xmlns:xlink="http://www.w3.org/1999/xlink" xmlns="http://www.w3.org/2000/svg">
  <g id="Logo">
    <path d="M0 37.4499L3.02484 37.4499L3.02484 33.4035L13.4872 33.4035L13.4872 37.4499L23.3477 37.4499L23.3477 18.2765L33.1585 27.1661L42.9194 18.2268L42.9194 37.4499L52.7796 37.4499L55.0206 32.5527L70.3093 32.5527L72.5999 37.4499L82.411 37.4499L82.3877 37.3999L86.4441 37.3999C88.5111 37.3999 90.4785 37.076 92.3458 36.4457C94.2129 35.8155 95.9167 34.9362 97.4751 33.7894C99.0282 32.6466 100.373 31.2995 101.517 29.7391C102.655 28.1877 103.539 26.4756 104.165 24.6095C104.792 22.7412 105.12 20.7751 105.12 18.6998C105.12 16.6251 104.792 14.6591 104.165 12.7904C103.539 10.9246 102.655 9.21256 101.517 7.66116C100.373 6.10071 99.0282 4.75354 97.4751 3.61036C95.9167 2.46354 94.2116 1.58009 92.3458 0.954118C90.4771 0.327563 88.5104 0 86.4441 0L72.5999 0L72.5999 16.5495L64.8314 0L60.399 0L52.7796 16.3711L52.7796 0L48.3473 0L33.1585 13.8775L17.9196 0L10.4624 0L10.4624 6.60193L8.07303 6.60193L8.07303 1.45769L5.24089 1.45769L5.24089 6.60193L3.02484 6.60193L3.02484 0.0312749L0 0.0312749L0 9.83912L13.4872 9.83912L13.4872 12.3544L0 12.3544L0 15.5912L5.22149 15.5912L5.22149 20.6394L0 20.6394L0 23.8764L13.4872 23.8764L13.4872 30.1664L3.02484 30.1664L3.02484 26.0627L0 26.0627L0 37.4499ZM147.63 37.4499L149.87 32.5527L165.159 32.5527L167.45 37.4499L177.261 37.4499L177.238 37.3999L181.294 37.3999C183.361 37.3999 185.331 37.0736 187.196 36.4457C189.06 35.8178 190.769 34.9342 192.325 33.7894C193.876 32.6489 195.226 31.2975 196.367 29.7391C197.502 28.1903 198.391 26.4732 199.015 24.6095C199.64 22.7435 199.969 20.7751 199.969 18.6998C199.969 16.6251 199.64 14.6564 199.015 12.7904C198.391 10.9266 197.502 9.20986 196.367 7.66116C195.226 6.10271 193.876 4.75084 192.325 3.61036C190.769 2.46589 189.059 1.57773 187.196 0.954118C185.33 0.329914 183.356 0 181.294 0L167.45 0L167.45 16.5495L159.681 0L155.249 0L137.819 37.4499L147.63 37.4499ZM82.3607 9.91848L86.4941 9.91848C87.7225 9.91848 88.8684 10.1677 89.9386 10.6243C91.0088 11.0802 91.9476 11.7115 92.7607 12.5248C93.5657 13.3296 94.2053 14.2682 94.6612 15.3303C95.1171 16.3925 95.3584 17.5296 95.3584 18.7501C95.3584 19.9783 95.1158 21.1317 94.6612 22.1942C94.2036 23.264 93.5657 24.2116 92.7607 25.0165C91.9476 25.8296 91.0088 26.4689 89.9386 26.9252C88.8684 27.3817 87.7218 27.6227 86.4941 27.6227L82.3607 27.6227L82.3607 9.91848ZM177.211 9.91848L181.344 9.91848C182.572 9.91848 183.72 10.1704 184.788 10.6243C185.856 11.0782 186.798 11.7124 187.611 12.5248C188.415 13.3286 189.057 14.2704 189.511 15.3303C189.965 16.3901 190.208 17.5296 190.208 18.7501C190.208 19.9783 189.963 21.1337 189.511 22.1942C189.056 23.2617 188.415 24.2126 187.611 25.0165C186.798 25.8287 185.856 26.4712 184.788 26.9252C183.72 27.3791 182.567 27.6227 181.344 27.6227L177.211 27.6227L177.211 9.91848ZM8.24669 20.6394L13.4872 20.6394L13.4872 15.5912L8.24669 15.5912L8.24669 20.6394ZM66.4748 24.2695L62.6897 16.0275L58.8553 24.2695L66.4748 24.2695ZM161.325 24.2695L157.54 16.0275L153.705 24.2695L161.325 24.2695Z" transform="translate(0 14.74219)" id="Fill-2" fill="#FFFFFE" fill-rule="evenodd" stroke="none" />
    <path d="M33.0629 11.7451C33.2083 11.5098 33.4059 11.4451 33.6735 11.4648C33.8228 11.2115 34.0481 10.7412 34.2361 10.5533C34.2935 10.4956 34.2925 10.5057 34.2917 10.5142C34.2907 10.5244 34.2899 10.5322 34.3918 10.416C34.6187 10.157 34.6057 10.0293 34.6327 9.77335C34.6544 9.57207 34.6804 9.5228 34.8521 9.35044L34.9573 9.2505C34.9696 9.2378 34.978 9.22781 34.99 9.21511C35.5496 8.61889 35.9971 7.56542 36.2578 7.3258C36.5037 7.09983 36.7164 7.15685 36.9297 6.87855C37.0177 6.76391 36.976 6.79789 37.0743 6.70383C37.2117 6.57192 37.3753 6.26458 37.51 6.1256L37.8086 5.79604C38.1845 5.37642 38.2259 5.21146 38.3628 5.07178C38.5868 4.8438 38.8764 4.28427 39.096 4.07592L39.8429 3.24479C40.3945 2.57285 40.0875 2.91546 40.4149 2.47091C40.5655 2.26621 40.8354 2.04929 41.0138 1.82296L42.3885 0.173856C42.3986 0.165156 42.4099 0.155162 42.4202 0.146226C42.4352 0.133041 42.4492 0.120456 42.4623 0.108597C42.5755 0.00624747 42.6288 -0.0419772 42.8097 0.0455822C42.7392 0.229587 42.5979 0.399835 42.5452 0.579841C42.4046 1.05872 42.0216 1.61003 41.7476 2.07327C41.3817 2.69278 40.8102 3.49134 40.6271 4.11696C40.5105 4.51483 40.0205 5.01052 39.9129 5.43438C39.7803 5.95665 38.6721 7.65078 38.3668 8.16529C38.2152 8.42089 38.2402 8.50661 38.1476 8.72094C38.0862 8.86286 37.9359 9.08648 37.8519 9.22851C37.5939 9.66413 36.4888 11.4055 36.3801 11.7534C36.2382 12.209 36.0975 12.338 35.8585 12.7833C35.7909 12.9089 35.7892 12.9207 35.7834 12.9596C35.7809 12.9763 35.7777 12.998 35.7682 13.0359L35.5386 13.7081C35.4552 13.8718 35.3139 14.0524 35.235 14.2164C35.1609 14.3701 35.1606 14.3902 35.1601 14.4166C35.1599 14.4318 35.1596 14.4492 35.1449 14.4957L34.8503 15.4252C34.7594 15.6408 34.6001 15.7598 34.4317 15.8968L34.3681 15.9471C34.3073 16.0028 34.2932 16.0007 34.2894 16.006C34.2881 16.0078 34.2879 16.0103 34.2875 16.0161C34.2867 16.0283 34.2849 16.0549 34.2695 16.1184C34.2664 16.1294 34.2644 16.1454 34.2621 16.1574C34.24 16.2653 34.2439 16.3409 34.2474 16.4101C34.2531 16.5219 34.2579 16.6171 34.1514 16.805C33.8444 17.3473 32.7946 18.9497 32.6333 19.3906C32.4031 20.0214 32.3571 20.0678 32.3487 20.1202C32.3467 20.1329 32.3469 20.1459 32.3472 20.1678C32.3481 20.2281 32.3499 20.3552 32.3087 20.7267C32.2968 20.8353 32.2688 20.9022 32.2414 20.9675C32.2075 21.0484 32.1746 21.1269 32.1748 21.279C32.1748 21.4172 32.2527 21.5709 32.2641 21.6833C32.2742 21.7839 32.2824 21.8031 32.2835 21.8057L32.2836 21.8059C32.2818 21.8045 32.2645 21.7908 32.2171 21.9415C32.1133 22.2711 32.1042 22.3224 32.0735 22.3497C32.0478 22.3726 32.007 22.3786 31.8821 22.5184C31.6758 22.7497 31.4396 23.2271 31.4312 23.4613C31.4302 23.492 31.4294 23.5219 31.4287 23.5509C31.4208 23.8719 31.4153 24.0899 31.0187 24.2072C30.7217 24.2949 30.889 24.3456 30.6247 24.3641C30.5694 24.368 30.5546 24.3635 30.541 24.3593C30.5224 24.3537 30.5059 24.3486 30.3918 24.3661C30.0534 24.4179 29.6515 24.4822 29.4315 24.7838C29.3721 24.8648 29.3229 24.9678 29.2969 25.0591C29.2699 25.1542 29.2745 25.1472 29.2797 25.1395C29.2841 25.133 29.2888 25.1259 29.2749 25.1801C29.2719 25.1927 29.2702 25.207 29.2662 25.2194C29.1605 25.564 29.0253 25.5854 29.0079 26.0039L28.9709 26.4702C28.9492 26.5449 28.9049 26.6182 28.8653 26.6879C28.6703 27.0278 28.3973 27.1621 28.306 27.5434C28.2393 27.8213 28.0177 28.0053 27.9913 28.3003C27.9684 28.5599 28.0157 28.6477 28.0504 28.7119C28.105 28.8133 28.1281 28.856 27.7931 29.4228C27.719 29.4203 27.656 29.4149 27.6004 29.4102C27.3864 29.392 27.2819 29.383 27.0745 29.5843C26.8276 29.8237 26.7279 30.1907 26.5183 30.4639C26.2746 30.7816 26.1387 30.5529 25.4012 31.7987C25.1449 32.2313 25.0851 32.2767 25.0608 32.7299L25.0568 32.8093C25.0045 33.3581 24.7399 33.4878 24.6353 33.8891C24.6001 34.0243 24.6595 34.1703 24.7173 34.3126C24.8108 34.5423 24.9003 34.7624 24.5812 34.9119C24.3049 35.0412 24.0413 34.9476 23.8533 35.1742C23.7924 35.2481 23.781 35.2925 23.709 35.3722C23.6006 35.4919 23.4796 35.5884 23.3646 35.6803C23.102 35.8898 22.8704 36.0747 22.8892 36.454C22.8895 36.465 22.8915 36.4807 22.8925 36.492C22.9073 36.6811 22.8742 36.768 22.829 36.8865C22.8084 36.9408 22.7852 37.0016 22.7629 37.0819L22.7452 37.1619C22.7094 37.3119 22.7208 37.4375 22.7319 37.5596C22.7458 37.713 22.7592 37.861 22.6779 38.0451C22.6295 38.1545 22.6253 38.1709 22.6156 38.1753C22.6138 38.1761 22.6118 38.1765 22.6093 38.177C22.5997 38.1789 22.5826 38.1824 22.5395 38.2174L22.2343 38.4034C22.2243 38.4081 22.2096 38.4144 22.1993 38.419C21.5475 38.7081 21.593 38.9093 21.6588 39.2004C21.681 39.2982 21.7054 39.4062 21.7064 39.5311C21.7089 39.8568 21.6028 39.9103 21.4712 39.9767C21.3948 40.0153 21.3098 40.0582 21.2325 40.1611C21.1055 40.3308 21.1178 40.4557 20.9458 40.546L20.5816 40.6747C20.5669 40.6837 20.4902 40.7357 20.4779 40.7473L20.4219 40.8104C20.3247 40.9577 20.3273 40.9567 20.3435 40.9504C20.3569 40.9451 20.3798 40.9362 20.3625 41.006C20.2853 41.317 20.0642 41.5899 19.8413 41.7182C19.5454 41.8889 19.4207 42.1094 19.2444 42.4091L18.4285 43.7965C18.3849 43.8702 18.3419 43.9462 18.2852 44.0096C18.1978 44.1071 18.1956 44.101 18.1932 44.0944C18.1911 44.0886 18.1889 44.0824 18.129 44.1451C18.0082 44.2718 17.9713 44.4154 17.8403 44.5544L17.669 44.7201C17.5917 44.83 17.5899 44.8635 17.5872 44.9102C17.5856 44.9386 17.5838 44.9719 17.5644 45.0303C17.5584 45.0483 17.5553 45.0597 17.5484 45.0777C17.5126 45.1693 17.5466 45.0887 17.5046 45.1727C17.3713 45.4389 17.2181 45.6959 16.9994 45.8883L16.2839 46.5812C16.1789 46.6774 16.0739 46.8638 16.0335 47.025L15.8822 47.6073C15.682 48.6081 15.5527 48.4552 15.0534 48.7998C15.0177 48.8248 14.991 48.8512 14.9561 48.8801C14.6447 49.1388 13.9709 50.3152 13.8656 50.7078L13.7982 50.8858C13.6096 51.2597 13.6449 51.3794 13.5279 51.5234L13.5132 51.5414C13.4651 51.6005 13.4593 51.6076 13.4539 51.6073L13.4515 51.6069C13.4461 51.6056 13.4366 51.6033 13.3946 51.63C12.895 51.9496 12.8717 52.4889 12.5035 52.8488L12.4328 52.9068C12.2068 53.0784 12.2185 53.0028 12.0272 53.3275L11.7979 53.6203C11.7882 53.6294 11.7765 53.6381 11.7669 53.647C11.7569 53.6567 11.7462 53.6663 11.7358 53.6761C11.4646 53.9426 11.34 54.1146 11.153 54.4306C11.0584 54.5899 11.0183 54.7506 10.9877 54.8538L10.725 55.4998C10.646 55.7524 10.4874 55.8571 10.2981 55.9903C9.99479 56.2037 10.0954 56.4213 9.6129 56.6946L9.33719 56.8206C8.71779 57.1041 8.6953 57.204 8.64773 57.4152C8.62876 57.4994 8.60579 57.6014 8.53933 57.7398C8.28643 58.2674 8.33169 58.4683 7.97015 59.0799C7.56722 59.7621 7.75146 59.6404 7.35923 59.8151C6.95289 59.9957 7.01027 60.4773 6.40735 60.661C6.14445 60.7413 6.14269 60.908 5.88978 61.0595L5.82347 61.0989C5.81348 61.1049 5.80043 61.1126 5.79043 61.1193L5.65252 61.2186C5.46381 61.3712 5.26617 61.5018 5.1152 61.6951L4.81997 62.0592C4.54332 62.324 4.54203 62.5233 4.18237 62.62C4.16308 62.419 4.21634 62.2664 4.32063 62.0917C4.38436 61.9847 4.46137 61.8808 4.50499 61.7638L5.0309 60.3707C5.21255 59.7537 5.46181 59.5252 5.54811 59.2282C5.57097 59.1491 5.5635 59.1372 5.558 59.1284C5.55042 59.1164 5.54659 59.1103 5.63077 58.943C5.79643 58.6126 6.08707 58.276 6.19136 57.9297C6.19642 57.9128 6.19806 57.9001 6.203 57.8834C6.35703 57.3505 6.26708 57.5091 6.64167 57.1569C6.85601 56.9552 7.01897 56.643 7.02626 56.3329C7.02668 56.3151 7.02263 56.2864 7.01814 56.2544C7.01128 56.2057 7.00337 56.1496 7.00862 56.1133C7.03226 55.9467 7.20486 55.6798 7.32784 55.5564C7.3801 55.5042 7.39399 55.5042 7.40486 55.5042C7.42062 55.5042 7.43003 55.5042 7.54088 55.3448C7.59085 55.2727 7.65752 55.1452 7.70349 55.0645C7.82553 54.8498 8.00048 54.6862 8.09078 54.5829C8.19525 54.464 8.19152 54.429 8.18037 54.3245C8.17808 54.303 8.17548 54.2786 8.17344 54.25L8.20506 53.9626C8.29371 53.5567 8.25809 53.2114 8.3257 53.0715C8.61599 52.4699 8.8763 52.8392 9.14825 52.4406C9.37329 52.1116 9.53025 51.6891 9.54953 51.3024C9.55294 51.2364 9.55517 51.1041 9.57187 51.0324C9.59727 50.9225 9.62584 50.8845 9.65617 50.7728C9.75023 50.4249 10.0498 50.2269 10.3178 49.9986C10.424 49.9079 10.4315 49.9456 10.4644 49.782L10.4711 49.663C10.478 49.5255 10.5096 49.4456 10.5376 49.375C10.576 49.2782 10.6074 49.199 10.5581 49.0127C10.5442 48.9598 10.529 48.9131 10.515 48.8696C10.481 48.7643 10.4533 48.6786 10.4644 48.5729C10.5307 47.9373 11.005 47.7473 11.0856 47.29C11.1012 47.2019 11.1004 47.1926 11.0993 47.1796C11.0989 47.1748 11.0984 47.1695 11.0987 47.1597C11.0991 47.1332 11.0946 47.0847 11.092 47.0573C11.091 47.0468 11.0903 47.0395 11.0903 47.0377C11.0903 46.4328 11.2649 46.6144 11.6406 46.2994C11.6919 46.2565 11.7232 46.2246 11.7669 46.1868C11.8379 46.1248 11.9235 46.0538 12.0101 45.9185C12.4465 45.2366 12.4212 45.1256 12.382 44.9526C12.3583 44.8486 12.3296 44.7223 12.3931 44.4361C12.4118 44.3511 12.3965 44.3335 12.4748 44.2518C12.922 43.7832 13.1457 44.2125 13.4616 43.33C13.4818 43.2738 13.4849 43.2548 13.4862 43.2468C13.4866 43.2441 13.4868 43.2426 13.4875 43.2414C13.49 43.2366 13.4987 43.235 13.5497 43.1747L13.9155 42.6797C14.0509 42.4791 14.1895 42.4971 14.3835 42.3725C14.3942 42.3654 14.4455 42.3305 14.4609 42.3211C14.4637 42.2414 14.4584 42.2027 14.4527 42.1608C14.4471 42.1204 14.4412 42.077 14.4418 41.9908C14.4491 41.1533 14.8874 41.1849 15.245 40.9146L15.418 40.7127C15.4847 40.5877 15.4829 40.5108 15.508 40.3831C15.6326 39.7431 15.5136 40.1478 15.7396 39.4403C15.8382 39.1306 16.0126 38.3278 16.0362 37.9804C16.0469 37.8295 16.0819 37.5505 16.2435 37.4889L16.3549 37.4478C16.5731 37.3772 16.9787 37.2542 17.1057 37.1023C17.2671 36.9086 17.2646 36.7986 17.2612 36.6513C17.2581 36.52 17.2544 36.3589 17.3657 36.0824C17.4821 35.7934 17.439 35.5622 17.621 35.2862C17.7063 35.1565 17.7165 35.1351 17.7276 35.1347C17.7296 35.1346 17.7317 35.1352 17.7344 35.1361C17.745 35.1394 17.7645 35.1455 17.8263 35.1155L18.3789 34.9553C18.4678 34.9422 18.5928 34.879 18.6838 34.7992C18.6868 34.7442 18.6945 34.6333 18.6948 34.6076C18.6964 34.5409 18.7012 34.5281 18.7019 34.5152C18.7025 34.504 18.6999 34.4926 18.6896 34.4462C18.6873 34.4363 18.6848 34.4248 18.6818 34.4114C18.6732 34.3713 18.6362 34.2833 18.6149 34.237L18.5485 34.0973C18.6038 34.0037 18.7325 33.7598 18.7948 33.692C19.0427 33.4231 19.2824 33.6155 19.638 33.0006C19.7196 32.8596 19.803 32.7223 19.886 32.5826C20.0413 32.3203 20.1129 32.0947 20.1205 31.8047C20.1223 31.7417 20.1143 31.6937 20.1073 31.651C20.0988 31.5999 20.0917 31.5563 20.1036 31.5037L20.2433 31.1568C20.2466 31.1438 20.2475 31.1295 20.2509 31.1168C20.4088 30.5193 20.4913 30.3693 20.9994 29.9503C21.0708 29.8916 21.0679 29.8856 21.0676 29.8849L21.0676 29.8848L21.0677 29.8848C21.0689 29.8848 21.0774 29.8844 21.1302 29.861C21.2146 29.8237 21.2193 29.8271 21.2247 29.831C21.2289 29.834 21.2335 29.8373 21.2755 29.8227C21.7813 29.6474 21.7444 29.3134 21.8283 29.0239C21.8363 28.996 21.8417 28.976 21.845 28.962C21.8479 28.9557 21.8512 28.9488 21.8547 28.9412C21.8607 28.9289 21.8666 28.9154 21.8734 28.9042L22.3133 28.3735C22.5103 28.1919 22.6419 27.9027 22.8109 27.7433L22.8732 27.6823C22.9296 27.6246 22.994 27.5663 23.0605 27.5061C23.308 27.282 23.5838 27.0323 23.5768 26.6939C23.5754 26.6292 23.5687 26.5857 23.5621 26.5432C23.5539 26.4906 23.546 26.4396 23.5488 26.3519C23.5521 26.2519 23.5601 26.2325 23.5688 26.1426C23.5813 26.0095 23.5744 25.9237 23.5687 25.8529C23.5565 25.7015 23.5498 25.6184 23.7497 25.2884C24.064 24.7698 24.369 24.2419 24.6776 23.7192C24.741 23.6712 24.7993 23.6789 24.8621 23.6871C24.9913 23.7041 25.1396 23.7236 25.3901 23.2643C25.5301 23.0076 25.4905 22.8059 25.4611 22.6562C25.4225 22.4593 25.4015 22.3522 25.829 22.3279C26.0512 21.9516 26.0395 21.8861 26.0007 21.6679C25.9854 21.5817 25.9658 21.4715 25.9547 21.309L25.95 21.2303C25.9445 20.8928 26.1239 20.8122 26.3301 20.7195C26.5364 20.6267 26.7697 20.5218 26.8716 20.1352C26.8723 20.1322 26.9106 19.9322 26.9106 19.9316L26.9269 19.8499C26.9295 19.8335 26.9369 19.7868 26.9389 19.7706L27.0292 18.9187C27.1028 18.6191 27.5235 18.6431 27.7601 18.5484L28.0607 18.3688C28.377 18.1591 28.4122 18.1196 28.4517 18.1148C28.4604 18.1138 28.4693 18.1144 28.4814 18.1153C28.5133 18.1176 28.5674 18.1216 28.6987 18.1012C29.0035 18.0534 29.1045 17.7489 29.1845 17.4612C29.2962 17.059 29.7008 16.8924 30.2324 15.9888C30.776 15.0646 30.7266 15.5136 30.8943 14.9167C30.9909 14.5724 31.4032 13.9928 31.5935 13.6772C31.7951 13.3429 32.2311 13.2583 32.4594 12.9309C32.5602 12.7861 32.5513 12.7815 32.5353 12.7731C32.519 12.7646 32.4952 12.7521 32.575 12.5807C32.6767 12.3631 32.929 11.9618 33.0629 11.7451ZM21.845 28.962C21.8046 29.0479 21.8112 29.0198 21.8246 28.9843C21.838 28.9488 21.8582 28.9059 21.845 28.962ZM0.722261 45.8342C0.406926 46.1975 0.296994 46.2649 0.00670175 46.0932C0.00399754 46.0805 0.00329209 46.0629 0.00305694 46.0549C0.00270422 46.0472 0.000705448 46.0258 0 46.0166L0.112989 44.8587C0.129332 44.3965 0.472297 44.2425 0.626908 43.9809C0.744247 43.7819 0.715559 43.4986 0.81585 43.2817C0.937893 43.0181 1.18844 42.7154 1.29979 42.4524C1.34531 42.3451 1.34888 42.3075 1.35214 42.2731C1.35617 42.2306 1.35974 42.193 1.44111 42.0355C1.54505 41.8335 1.5608 41.8712 1.61677 41.6509L1.6638 41.4822C1.66874 41.4672 1.67544 41.4542 1.68014 41.4393C1.7434 41.2426 1.69872 41.1123 1.77843 40.9177L1.99501 40.2717C2.00006 40.257 2.003 40.2427 2.00865 40.2287C2.10271 39.9981 2.31963 39.8828 2.40899 39.6279C2.47165 39.4479 2.48459 39.2583 2.68423 39.0586C2.9182 38.8246 3.1978 38.4484 3.22084 38.0718C3.23718 37.7997 3.70807 36.9739 3.93076 36.7437C4.00987 36.6615 4.00699 36.6728 4.00461 36.682C4.00222 36.6914 4.00034 36.6987 4.08266 36.6073C4.13334 36.551 4.15168 36.5126 4.20071 36.4543L4.36437 36.2774C4.44691 36.1592 4.44064 35.9818 4.43402 35.7945C4.42902 35.6529 4.42381 35.5056 4.45667 35.3738L4.5987 35.0062C4.81962 34.6076 5.18822 34.366 5.32449 33.9031C5.33413 33.8703 5.33523 33.856 5.33621 33.8432C5.33808 33.8187 5.33953 33.7997 5.39856 33.6698C5.53588 33.3655 5.61913 33.1932 5.69708 32.8999C5.82712 32.4096 6.26567 31.7964 6.63062 31.4314L7.01297 31.0525C7.20791 30.8475 7.23025 30.6599 7.27587 30.4166C7.28767 30.3535 7.29053 30.3013 7.29323 30.252C7.29862 30.1535 7.30335 30.0671 7.37757 29.93C7.55088 29.611 7.76016 29.1591 8.02012 28.9065L8.37108 28.4805C8.57601 28.2636 8.78036 28.1573 8.94002 27.8596C9.05527 27.6442 9.05531 27.6346 9.05579 27.4917C9.05582 27.481 9.05586 27.4695 9.05595 27.4571L9.04196 26.9978C9.04431 26.9851 9.0476 26.9704 9.05031 26.9575C9.05325 26.9441 9.0576 26.9301 9.06101 26.9161C9.12332 26.6536 9.09439 26.4908 9.07273 26.3689C9.05144 26.249 9.03718 26.1687 9.12356 26.0723L9.39257 25.9076C10.1094 25.6043 9.73424 25.3817 10.1341 24.9977C10.2691 24.8678 10.2562 24.8608 10.4057 24.8112C10.8411 24.6672 10.8691 24.4278 10.9072 24.1026C10.9181 24.0094 10.9299 23.909 10.9523 23.8019C10.9665 23.7346 10.9482 23.7327 10.9397 23.7319C10.9378 23.7317 10.9364 23.7315 10.9359 23.7308C10.9343 23.7285 10.9411 23.7204 10.9687 23.6875C10.9791 23.6752 10.9924 23.6593 11.0093 23.6389C11.063 23.5743 11.1879 23.5256 11.274 23.4903C11.2842 23.4863 11.2996 23.4827 11.3096 23.4783C11.4956 23.398 11.439 23.4467 11.5832 23.2024C11.7389 22.9398 11.7154 22.8761 11.6803 22.7809C11.6576 22.7192 11.63 22.6442 11.6432 22.4932C11.6446 22.4788 11.6466 22.4641 11.6486 22.4494C11.6826 22.1882 11.7532 22.0628 11.9509 21.8815C12.1035 21.7413 12.4031 21.4673 12.4694 21.3057C12.5881 21.0154 12.4975 20.0571 12.8147 19.9076C12.9008 19.8666 13.034 19.8649 13.1306 19.7946C13.3453 19.6393 13.489 19.3619 13.699 19.2284L14.2634 18.7991C14.3935 18.6598 14.4308 18.5661 14.4758 18.4027C14.5321 18.1988 14.6364 17.9548 14.8051 17.7769C15.1087 17.4569 15.1781 17.1983 15.4437 16.839C15.5686 16.6693 15.9042 16.4061 16.0962 16.2254C16.1058 16.2164 16.1182 16.2077 16.1272 16.1988C16.3355 15.9874 16.1579 15.9434 16.3478 15.7178C16.4722 15.5708 16.7315 15.3612 16.8877 15.1376C17.2103 14.675 17.194 14.751 17.588 14.4467L17.8103 14.2618C18.034 14.0501 18.3275 13.5245 18.4242 13.2599C18.454 13.1781 18.4502 13.1349 18.4475 13.1041C18.4418 13.0406 18.4409 13.0297 18.7495 12.8403C19.0541 12.653 19.2164 12.6939 19.4467 12.2977C19.7819 11.7214 20.072 11.4668 20.213 11.1895C20.3242 10.9712 20.3182 10.7456 20.5309 10.535C20.5438 10.522 20.5538 10.5147 20.5669 10.502C21.0058 10.0683 21.1641 10.1423 21.4614 9.6278C21.6801 9.24921 21.8697 8.98819 22.0793 8.74093C22.0917 8.72588 22.0986 8.71589 22.1106 8.7006C22.1606 8.63829 22.1683 8.60925 22.226 8.54693C22.2903 8.47698 22.42 8.40432 22.5146 8.34659C23.0794 8.00268 23.1218 7.64043 23.729 7.12687L24.1519 6.6822C24.2903 6.54993 24.29 6.48162 24.4036 6.3236C24.5 6.18968 24.5646 6.13924 24.7016 6.03201L24.8662 5.92161C24.9009 5.89868 24.9652 5.854 24.9948 5.83002L25.3974 5.44343C25.4394 5.40133 25.4884 5.33405 25.5444 5.25704C25.7444 4.98218 26.0344 4.58348 26.4213 4.76385C26.253 5.0485 26.3246 5.1214 26.085 5.5161C25.8668 5.8747 25.823 6.23824 25.5687 6.57662C25.472 6.70538 25.4591 6.7054 25.4443 6.70543C25.4302 6.70545 25.4144 6.70548 25.3242 6.81447C25.1189 7.06349 25.1898 7.22516 25.0285 7.49911C24.7856 7.91297 24.8753 7.90204 24.7272 8.19503C24.2896 9.06191 22.7448 11.3078 22.5453 11.9298C22.3359 12.5807 21.7213 13.2668 21.562 13.7678C21.3624 14.3947 20.9095 15.0003 20.5785 15.5799C20.4698 15.7704 20.4694 15.7826 20.4639 15.9404C20.4634 15.9573 20.4627 15.9759 20.4619 15.9965C20.4379 16.595 19.8166 16.3111 19.614 17.4239C19.611 17.4405 19.603 17.489 19.5997 17.5055C19.5187 17.9222 18.2158 19.9625 17.9956 20.3331C17.9303 20.4421 17.8296 20.593 17.7763 20.702C17.7143 20.8301 17.7417 20.7778 17.7097 20.8851C17.5889 21.2933 17.5124 21.3523 17.43 21.7493C17.4183 21.8052 17.3657 22.0695 17.3544 22.1086C17.3124 22.2505 17.2624 22.3088 17.2207 22.4594C17.1444 22.7381 17.0834 22.8885 16.8688 23.0797C16.7558 23.1807 16.7058 23.3194 16.6564 23.4776L16.3598 24.2895C16.3565 24.3025 16.3535 24.3169 16.3509 24.3296C16.3478 24.3421 16.3455 24.3568 16.3429 24.3692C16.3069 24.5421 16.3369 24.5941 16.2659 24.7351C16.2171 24.8316 16.2089 24.8331 16.1941 24.8358C16.1871 24.8371 16.1786 24.8387 16.1636 24.8508L15.7626 25.098C15.307 25.3763 14.5081 26.9764 14.1539 27.5827C13.8645 28.0769 13.8233 28.0013 13.6903 28.1906C13.5754 28.3541 13.5833 28.3676 13.5966 28.3902C13.6062 28.4066 13.6187 28.4278 13.5889 28.5149C13.5059 28.7585 13.328 28.9792 13.249 29.2397C13.0986 29.7387 12.6557 30.1306 12.3248 30.4692C12.0255 30.7752 12.0632 30.8376 11.8595 31.0741C11.7686 31.1799 11.7555 31.1739 11.7452 31.1691C11.7339 31.1639 11.7261 31.1603 11.6199 31.3121C11.5439 31.4205 11.4793 31.5744 11.403 31.6824C11.2955 31.8347 11.2782 31.8412 11.2566 31.8492C11.2383 31.856 11.2171 31.864 11.135 31.9633C10.808 32.3599 10.1192 33.5772 9.9815 34.0334C9.85581 34.4477 9.11827 35.6288 8.75367 35.8877C8.74438 35.8944 8.73168 35.9037 8.72204 35.9097L8.62034 35.9657C8.46937 36.0384 8.4127 36.0261 8.27678 36.1297L8.21741 36.1813C8.16238 36.2347 8.15239 36.2597 8.09913 36.3174C8.08749 36.3301 8.07844 36.3397 8.06609 36.3524C8.05375 36.3653 8.0441 36.3737 8.03176 36.3864C8.01883 36.3993 8.00883 36.4067 7.99578 36.4193C7.85881 36.5557 7.81554 36.5973 7.7698 36.781C7.71548 36.9996 7.48856 37.3132 7.45223 37.5318C7.43394 37.642 7.43937 37.6813 7.44346 37.711C7.44803 37.7441 7.45095 37.7652 7.41755 37.8591C7.28822 38.2237 7.00698 38.2824 6.80334 38.5456C6.50435 38.9326 6.28237 39.4152 6.03805 39.8361C5.7668 40.3034 5.87673 40.1251 5.56587 40.3577L5.43947 40.481C5.28416 40.648 5.22725 40.647 5.08452 40.885C4.72791 41.4779 4.88429 41.1873 4.62162 41.5009C4.4723 41.6792 4.32534 42.0248 4.18636 42.2295C4.0207 42.4727 4.05468 42.3605 3.92111 42.5138C3.65175 42.8224 3.4915 43.276 3.26223 43.6086C3.18956 43.7139 3.23189 43.6686 3.14724 43.7413L2.74431 43.9542C2.46566 44.1558 2.40499 44.3288 2.06202 44.5341C2.05203 44.5404 2.03804 44.5475 2.02769 44.5538L1.96232 44.5947C1.80277 44.7148 1.85204 44.7251 1.72905 44.8724C1.46216 45.1924 1.49108 45.0941 1.18386 45.2171C0.959527 45.3066 0.903561 45.6246 0.722261 45.8342ZM33.4179 32.9252C33.203 33.2898 33.1167 33.3901 33.088 33.7964C33.0609 34.1817 33.0206 34.9459 32.5067 35.0072C32.5002 35.008 32.4921 35.008 32.4843 35.008C32.4784 35.008 32.4727 35.008 32.4678 35.0083C32.4619 35.0084 32.4552 35.0079 32.4483 35.0074C32.4411 35.0069 32.4338 35.0063 32.4277 35.0065C32.2885 35.0079 32.2247 35.0269 32.1701 35.0659C31.5735 35.4939 31.6728 36.1677 31.4905 36.7917L31.4078 37.0816C31.2556 37.5635 31.1215 37.7655 30.8033 38.1041L30.3843 38.4844C30.3654 38.4984 30.2864 38.5483 30.283 38.5507L30.0288 38.7627C29.8424 38.9086 29.7191 38.9002 29.4718 38.877C29.0982 39.4419 29.1182 39.5135 29.1417 39.5973C29.155 39.6444 29.1693 39.6955 29.1149 39.8408C29.0108 40.1189 28.9029 40.1551 28.8067 40.1875C28.6693 40.2337 28.5556 40.2719 28.5103 40.9937L28.2983 42.1078C28.2707 42.1961 28.266 42.2101 28.2197 42.2974C28.1726 42.3864 28.1083 42.4818 28.04 42.5518C28.026 42.5665 27.8384 42.6951 27.8327 42.6977L27.5265 42.872C27.5138 42.8827 27.4768 42.9144 27.4665 42.9243L27.3888 43.0446C27.3842 43.058 27.3651 43.1333 27.3544 43.161C27.2387 43.4639 27.2485 43.5738 27.2568 43.6679C27.2675 43.7884 27.276 43.8832 27.0158 44.3238C26.9426 44.4478 26.9112 44.4061 26.7426 44.5824C26.3847 44.9567 26.6053 44.647 26.2263 45.2883C26.1193 45.4696 26.0761 45.9475 25.7057 46.2915C25.6897 46.3065 25.5534 46.4275 25.4624 46.5748C25.2078 46.9881 25.2635 47.0304 25.1554 47.2787L24.9721 47.736C24.9665 47.7536 24.9636 47.7652 24.9572 47.7829L24.8202 48.055C24.7053 48.3275 24.7986 48.2652 24.51 48.7538C24.4479 48.8592 24.3583 49.0321 24.2887 49.1231C24.1745 49.272 24.1651 49.2661 24.1551 49.2598C24.1459 49.2541 24.1363 49.248 24.0453 49.3604C23.9383 49.4927 23.8387 49.765 23.8104 49.8696L23.67 50.2179C23.6667 50.2296 23.6494 50.3739 23.6494 50.3752L23.6468 50.4695C23.6471 50.4643 23.6509 50.4038 23.6598 50.5312C23.661 50.5501 23.6625 50.5677 23.664 50.5841C23.6734 50.6942 23.6787 50.7552 23.5737 50.8698C23.5631 50.8814 23.5524 50.8938 23.5404 50.9054C23.4264 51.0191 23.2914 51.0667 23.1684 51.1501C23.0265 51.246 22.8968 51.4507 22.7802 51.6153L22.7366 51.6813C22.5342 52.0398 22.561 52.1712 22.5896 52.3108C22.6174 52.4466 22.6467 52.5901 22.4683 52.9578C22.319 53.2657 22.3809 53.2968 22.1943 53.606C22.069 53.8143 21.9384 54.1083 21.7693 54.2309C21.7593 54.238 21.7457 54.2453 21.7357 54.252L21.5354 54.3769C21.4281 54.4796 21.4114 54.545 21.3947 54.6742L21.3871 54.8322C21.3792 55.003 21.4163 55.0795 21.4775 55.2056C21.4882 55.2276 21.4996 55.2512 21.5117 55.2771C21.4125 55.5281 21.4301 55.6171 21.2968 55.8731C21.1865 56.0853 21.0141 56.3109 20.9085 56.5229C20.7485 56.8439 20.7422 57.0886 20.6099 57.4021L20.3026 58.203C20.2582 58.374 20.2076 58.4473 20.1906 58.6203C20.1575 58.9569 20.0516 59.229 19.9616 59.46C19.8603 59.7201 19.7793 59.9282 19.8453 60.1178C19.9804 60.1572 20.0334 60.1279 20.1313 60.0738C20.1467 60.0654 20.1632 60.0563 20.1812 60.0467L20.2836 59.9977C20.4855 59.9098 20.5832 59.8011 20.7469 59.6351L20.8065 59.5798C20.9768 59.4162 21.1162 59.2625 21.3215 59.1755L21.6327 59.0006C21.9835 58.7796 21.9674 58.5808 21.9484 58.3466C21.9326 58.1521 21.9149 57.9331 22.1039 57.6568C22.2033 57.5115 22.2976 57.4212 22.4652 57.3954C23.0018 57.3128 22.9468 57.2728 23.3365 56.9492C23.6031 56.7282 23.836 56.3043 23.8591 55.9607L23.8887 55.6337C23.8983 55.5748 23.9003 55.571 23.9137 55.5074L24.0246 55.2711C24.2371 55.0596 24.3309 55.0793 24.4811 55.1108C24.5513 55.1256 24.6337 55.1429 24.7463 55.1405C24.7716 55.1399 24.7893 55.1399 24.8023 55.1399C24.8224 55.14 24.8313 55.14 24.8396 55.1378C24.8512 55.1346 24.8616 55.127 24.8995 55.1088L25.0028 55.0362C25.1698 54.8965 25.1065 54.8756 25.1885 54.6882C25.3217 54.3824 25.304 54.3612 25.2684 54.3185C25.2393 54.2836 25.1982 54.2343 25.2175 54.0036C25.2528 53.5837 25.6254 53.461 25.736 53.1711C25.7789 53.0585 25.773 53.0604 25.765 53.0631C25.7572 53.0657 25.7473 53.0689 25.7787 52.9669C25.9184 52.5086 26.7143 51.906 26.8436 51.6871L27.2522 50.9955C27.3075 50.9014 27.2895 50.8228 27.3579 50.5895L27.4774 50.1702C27.6124 49.6367 27.8251 49.8779 28.1737 49.6127C28.359 49.4717 28.51 49.3077 28.5773 49.0748C28.581 49.0617 28.5823 49.0474 28.5857 49.0347L28.694 48.6492C28.7108 48.5591 28.7201 48.489 28.7278 48.4309C28.7609 48.1809 28.7645 48.1532 29.2159 47.7143C29.2744 47.6575 29.2819 47.6622 29.2872 47.6655C29.294 47.6698 29.2971 47.6717 29.4008 47.537C29.5792 47.306 29.6299 47.0288 29.9035 46.9458C30.0751 46.8934 30.1871 46.8271 30.3231 46.7138C30.4567 46.6021 30.572 46.5381 30.6307 46.3592L30.8247 45.44C30.8272 45.4269 30.8303 45.4123 30.833 45.3993L30.8579 45.2754C30.9226 44.953 31.0652 44.7174 31.2552 44.3965C31.5068 43.9702 31.6941 44.1188 32.0024 43.8285C32.4044 43.4499 32.321 42.9794 32.4337 42.4898C32.5354 42.0491 32.7023 42.2208 32.8004 41.5346C32.8927 40.8896 33.4119 40.7586 33.7089 40.2538C34.0971 39.5942 34.5507 38.9286 34.6041 38.1721C34.6119 38.0617 34.6084 38.0204 34.6174 37.9821C34.628 37.9372 34.6558 37.8964 34.7391 37.7534C34.9097 37.4598 35.0903 37.1692 35.2613 36.8749C35.4659 36.5223 35.6159 36.4687 35.8069 36.1437C35.9791 35.8507 36.1538 35.5568 36.3232 35.2625C36.5653 34.8416 36.6706 34.8252 36.7725 34.8094C36.8855 34.7918 36.9943 34.7748 37.2813 34.2067C37.3574 34.0563 37.3511 33.98 37.3422 33.8728C37.3384 33.8271 37.3341 33.7758 37.3356 33.7107C37.3476 33.2184 37.4306 33.2025 37.7403 32.6782C37.9145 32.383 38.4055 31.3878 38.6831 31.1962C38.9558 31.0072 39.185 31.1324 39.2414 30.7558C39.2642 30.6032 39.2627 30.5043 39.2612 30.4135C39.2592 30.2873 39.2575 30.1768 39.322 29.9593L39.35 29.7204C39.3475 29.668 39.3362 29.6309 39.3264 29.5983C39.3037 29.5238 39.2882 29.4725 39.4 29.3141C39.5506 29.1011 39.8259 28.9881 39.9576 28.4622C40.1055 27.8693 40.0545 27.9863 40.3226 27.7114C40.4721 27.5577 40.7464 27.0314 40.8738 26.8149C41.4947 25.7556 41.6887 26.2962 41.888 25.1454C41.9176 24.9751 41.9259 24.8824 41.9913 24.7388C42.3052 24.0493 43.2501 22.6801 43.6846 21.8755C43.808 21.647 43.709 21.6826 43.843 21.4132C44.0685 20.9603 44.0769 20.8983 44.0885 20.8129C44.0963 20.7561 44.1054 20.6889 44.1809 20.4891C44.2719 20.2484 44.5785 19.8108 44.7205 19.5636C44.8975 19.2556 44.8018 19.2257 45.1518 18.6411C45.2371 18.4985 45.3528 18.3391 45.4054 18.1844C45.4643 18.0111 45.4714 17.9052 45.584 17.7175C45.7817 17.3885 45.918 17.1386 45.998 16.784C45.801 16.6667 45.6237 16.8925 45.4066 17.1689C45.3141 17.2867 45.2144 17.4137 45.1028 17.5273L44.8798 17.7969C44.7382 18.0025 44.7929 17.9075 44.6779 18.0182C44.4826 18.2055 44.4596 18.396 44.2412 18.5951L44.0363 18.8496C43.9769 18.9494 43.9146 19.0807 43.843 19.1693L42.9734 20.0798C42.8101 20.2762 42.6989 20.3738 42.5405 20.6474L41.91 21.4199C41.5203 21.776 41.676 21.6616 41.393 22.0125C41.3102 22.1153 41.3102 22.1122 41.3101 22.1047C41.3101 22.099 41.31 22.0906 41.272 22.1262L40.7478 22.7815C40.6191 22.9174 40.5628 23.107 40.4369 23.2474C40.3535 23.34 40.3421 23.3349 40.3335 23.331C40.324 23.3268 40.3177 23.324 40.2245 23.4509L39.7916 24.0029C39.7556 24.0476 39.748 24.0698 39.7062 24.1165C39.5546 24.2872 39.5126 24.2972 39.3813 24.5042L39.1417 24.7692C38.9035 25.0061 38.5874 25.702 38.3748 26.0276C38.1979 26.2986 38.1429 26.1919 37.9605 26.5255C37.7759 26.8618 37.7736 27.1544 37.5476 27.3897C37.5372 27.4 37.5266 27.4094 37.5163 27.4191C37.2893 27.6257 36.9187 27.622 36.8134 27.9423C36.7701 28.0743 36.8094 28.3403 36.7664 28.5056C36.6798 28.8408 36.1885 29.4528 35.9375 29.664L35.7139 29.8466C35.4676 30.0766 35.3253 30.4935 35.134 30.7689C34.8267 31.2109 34.7451 30.8125 34.5187 31.6687C34.4955 31.7567 34.5038 31.7456 34.509 31.7386C34.5141 31.7318 34.5163 31.7289 34.4828 31.8277C34.4364 31.9647 34.3758 32.0231 34.3271 32.1473C34.2824 32.2614 34.2777 32.3409 34.2738 32.4069C34.2662 32.5354 34.2616 32.6123 33.9705 32.7922C33.8199 32.8852 33.9205 32.8633 33.7249 32.9112C33.7042 32.9162 33.6002 32.9256 33.5748 32.9265C33.5502 32.9273 33.5433 32.9271 33.5333 32.9267C33.5259 32.9265 33.5168 32.9262 33.4976 32.9262L33.4179 32.9252ZM46.3746 35.2103C46.3662 35.1826 46.3956 35.1435 46.6805 34.6613C46.7688 34.5116 46.7389 34.6399 46.8942 34.4723C47.0435 34.3107 47.2248 34.247 47.3594 34.0687C47.5685 33.7908 47.6057 33.3592 47.7734 33.2428C47.946 33.1225 48.3002 32.9922 48.4926 32.8299C48.6399 32.7049 48.6675 32.5739 48.7769 32.412C48.9845 32.1043 48.8826 32.3639 49.0761 32.0943C49.1818 31.9466 49.2732 31.7364 49.3748 31.5827C49.5508 31.3171 49.5037 31.4681 49.6747 31.2581L50.139 30.6839C50.2219 30.5846 50.2221 30.589 50.2225 30.5967C50.2229 30.604 50.2234 30.6142 50.2916 30.5456C50.4353 30.4012 50.4787 30.2303 50.6042 30.0803C50.7016 29.9647 50.7906 29.9347 50.8999 29.7547C50.9966 29.5957 51.0535 29.4454 51.1839 29.3241C51.3042 29.2117 51.4608 29.1721 51.5678 29.1768C51.4949 29.3267 51.4999 29.3354 51.5067 29.347C51.5109 29.354 51.5156 29.3622 51.5038 29.4041C51.4998 29.4184 51.4969 29.4317 51.4925 29.4461L51.2749 30.0813C50.9566 30.9932 50.5937 31.1444 50.4603 31.6737C50.448 31.7224 50.45 31.8007 50.3543 31.977C50.1637 32.3299 50.1824 32.4569 49.9174 32.9022C49.7904 33.1152 49.6525 33.3354 49.5311 33.5498C49.3371 33.8917 49.4972 33.8041 49.2941 34.148C49.1242 34.437 49.0828 34.56 49.0222 34.8446L49.0025 34.9356C48.8336 35.5682 47.71 36.9099 47.4191 37.9991C47.3441 38.2799 47.3394 38.4153 47.3349 38.5471C47.3314 38.6468 47.328 38.7443 47.2944 38.9009C47.1952 39.3656 46.5752 39.9605 46.4876 40.4717C46.464 40.6083 46.4745 40.7316 46.4851 40.8558C46.493 40.948 46.5009 41.0406 46.4949 41.1396C46.4742 41.4825 46.1643 41.7415 46.0197 41.9241C45.844 42.1454 45.806 42.2651 45.8297 42.5147L45.85 42.7887C45.8537 42.9073 45.8571 42.924 45.8512 42.9362C45.8449 42.9493 45.8279 42.9573 45.789 43.0817L45.7644 43.166C45.7606 43.1794 45.7586 43.1934 45.7553 43.2063C45.7167 43.3593 45.6091 43.5336 45.5161 43.6172C45.2848 43.8252 45.2988 43.9515 45.1181 44.1898C44.7718 44.6465 44.0843 44.5558 44.0246 45.5597C44.0209 45.6241 44.0227 45.6809 44.0244 45.7359C44.0283 45.8552 44.0318 45.9659 43.9773 46.1272C43.8486 46.5058 43.8459 46.6021 43.5051 46.8747L43.2634 47.0433C42.788 47.4446 42.7998 47.5229 42.8248 47.6883C42.8295 47.7197 42.8347 47.7542 42.8371 47.7946C42.8375 47.803 42.8279 48.0089 42.8241 48.0236C42.7765 48.2099 42.6335 48.3989 42.5309 48.5722C42.4446 48.6655 42.1399 48.5838 41.684 49.069L41.2797 49.4727C41.1201 49.6333 41.0594 49.7557 40.9257 49.9889C40.6965 50.3882 40.5384 50.4552 40.2176 51.0004C39.6616 51.9455 39.5867 51.9651 39.4029 52.0131C39.3258 52.0332 39.2297 52.0583 39.071 52.1587C38.8581 52.2933 38.9035 52.3612 38.7071 52.5482C38.4822 52.7629 38.4484 53.0121 38.2929 53.1887L38.0789 53.4517C37.7972 53.7517 37.4436 53.8174 37.0994 54.1782C37.0867 54.1913 37.0774 54.1996 37.0647 54.2129C36.8758 54.4076 36.7788 54.5355 36.503 54.5619C36.4553 54.237 36.4589 54.23 36.4998 54.1525C36.5225 54.1095 36.5566 54.0447 36.5998 53.8917C36.614 53.8414 36.6089 53.8494 36.6045 53.8563C36.5992 53.8646 36.595 53.8711 36.6271 53.7717L36.8217 53.2211C36.9804 52.8937 36.9618 52.8327 36.9454 52.7788C36.9321 52.7355 36.9203 52.6969 37.003 52.5285C37.1143 52.3026 37.312 52.0842 37.3759 51.8477C37.4636 51.5218 37.6436 51.3477 37.6522 51.0051L37.9402 49.5133C37.9452 49.4961 37.9496 49.4837 37.9545 49.467C38.0482 49.1687 38.1276 48.9595 38.2945 48.6792C38.4157 48.4752 38.4105 48.3905 38.4521 48.2568C38.5068 48.0815 38.6344 47.9153 38.7304 47.7553C38.8707 47.5214 38.8711 47.3657 38.8714 47.22C38.8717 47.1077 38.8719 47.0014 38.936 46.8698C39.0034 46.7314 39.2417 46.5795 39.3583 46.4251C39.4187 46.3455 39.4459 46.2355 39.473 46.1049L39.504 45.9472C39.5063 45.9343 39.5097 45.9196 39.5122 45.9065L39.5649 45.465C39.5767 45.2463 39.625 45.028 39.6897 44.8361C39.7476 44.6641 39.7376 44.5802 39.7673 44.3945C39.8306 43.9985 40.2612 44.0229 40.4369 43.6775C40.6171 43.3236 40.6011 42.8633 41.0601 42.5797L41.4293 42.2961C41.7513 41.9765 42.0426 41.3969 42.3012 40.959C42.2209 40.8525 42.249 40.8509 42.2509 40.843C42.2525 40.8361 42.2341 40.8244 42.1052 40.7333C42.3252 40.3604 42.1436 40.2358 42.6192 39.8285C42.6322 39.8174 42.6698 39.7851 42.6828 39.7742L42.7465 39.7202C43.0831 39.4365 43.2637 39.1446 43.4947 38.752C43.8986 38.066 43.766 38.3581 44.0096 38.0561C44.2183 37.7977 44.2912 37.4251 44.5822 37.2616L44.6519 37.2279C44.7945 37.1623 44.8798 37.1272 44.9651 37.0073C45.3157 36.5137 45.2634 36.8907 45.59 36.3181C45.8523 35.8585 46.1726 35.9557 46.3276 35.6365L46.3879 35.3032C46.3933 35.2358 46.3789 35.2246 46.3746 35.2103Z" transform="translate(98.62109 0)" id="Fill-3" fill="#F9C623" fill-rule="evenodd" stroke="none" />
  </g>
</svg>
