<?xml version="1.0" encoding="utf-8"?>
<svg width="329px" height="319px" viewBox="0 0 329 319" version="1.1" xmlns:xlink="http://www.w3.org/1999/xlink" xmlns="http://www.w3.org/2000/svg">
  <desc>Created with Lunacy</desc>
  <g id="?" transform="translate(110.9502 0)">
    <path d="M39.2578 196.883Q38.2031 193.836 37.3828 188.973Q36.5625 184.109 36.5625 179.305Q36.5625 171.805 39.5508 165.77Q42.5391 159.734 46.9922 154.461Q51.4453 149.188 56.7188 144.324Q61.9922 139.461 66.4453 134.48Q70.8984 129.5 73.8867 124.051Q76.875 118.602 76.875 112.039Q76.875 106.414 74.707 102.078Q72.5391 97.7422 68.7891 94.8125Q65.0391 91.8828 60.1172 90.418Q55.1953 88.9531 49.6875 88.9531Q29.8828 88.9531 15.3516 104.539L15.3516 83.9141Q33.2813 72.6641 52.5 72.6641Q61.4063 72.6641 69.2578 75.0078Q77.1094 77.3516 83.0273 81.9805Q88.9453 86.6094 92.3438 93.5234Q95.7422 100.438 95.7422 109.578Q95.7422 118.25 92.6953 125.047Q89.6484 131.844 85.0195 137.527Q80.3906 143.211 75 148.133Q69.6094 153.055 64.9805 157.918Q60.3516 162.781 57.3047 168.055Q54.2578 173.328 54.2578 179.656Q54.2578 185.047 55.5469 189.441Q56.8359 193.836 58.125 196.883L39.2578 196.883ZM49.8047 245.633Q44.6484 245.633 40.6641 241.883Q36.7969 238.133 36.7969 232.742Q36.7969 227.234 40.6641 223.602Q44.5313 219.734 49.8047 219.734Q55.0781 219.734 58.9453 223.602Q62.8125 227.234 62.8125 232.742Q62.8125 238.133 58.9453 241.883Q54.9609 245.633 49.8047 245.633Z" />
  </g>
  <g id="?" transform="matrix(0.9396926 0.3420201 -0.3420201 0.9396926 269.9316 76.60352)">
    <path d="M24.3025 122.144Q23.6496 120.258 23.1417 117.247Q22.6339 114.237 22.6339 111.262Q22.6339 106.62 24.4838 102.883Q26.3337 99.1474 29.0904 95.8829Q31.8471 92.6184 35.1116 89.6078Q38.3761 86.5972 41.1328 83.5141Q43.8895 80.4309 45.7394 77.0576Q47.5893 73.6843 47.5893 69.6218Q47.5893 66.1396 46.2472 63.4555Q44.9051 60.7713 42.5837 58.9577Q40.2623 57.1441 37.2154 56.2373Q34.1685 55.3305 30.7589 55.3305Q18.4989 55.3305 9.50335 64.9789L9.50335 52.211Q20.6027 45.2468 32.5 45.2468Q38.0134 45.2468 42.8739 46.6976Q47.7344 48.1485 51.3979 51.0141Q55.0614 53.8796 57.1652 58.1597Q59.269 62.4398 59.269 68.0983Q59.269 73.4666 57.3828 77.6742Q55.4966 81.8818 52.6311 85.4002Q49.7656 88.9186 46.4286 91.9655Q43.0915 95.0124 40.226 98.023Q37.3605 101.034 35.4743 104.298Q33.5882 107.563 33.5882 111.48Q33.5882 114.817 34.3862 117.537Q35.1842 120.258 35.9821 122.144L24.3025 122.144ZM30.8315 152.323Q27.6395 152.323 25.173 150.001Q22.779 147.68 22.779 144.343Q22.779 140.933 25.173 138.684Q27.567 136.29 30.8315 136.29Q34.096 136.29 36.49 138.684Q38.8839 140.933 38.8839 144.343Q38.8839 147.68 36.49 150.001Q34.0234 152.323 30.8315 152.323Z" />
  </g>
  <g id="?" transform="matrix(0.9396926 -0.3420201 0.3420201 0.9396926 0 102.6582)">
    <path d="M24.3025 122.144Q23.6496 120.258 23.1417 117.247Q22.6339 114.237 22.6339 111.262Q22.6339 106.62 24.4838 102.883Q26.3337 99.1474 29.0904 95.8829Q31.8471 92.6184 35.1116 89.6078Q38.3761 86.5972 41.1328 83.5141Q43.8895 80.4309 45.7394 77.0576Q47.5893 73.6843 47.5893 69.6218Q47.5893 66.1396 46.2472 63.4555Q44.9051 60.7713 42.5837 58.9577Q40.2623 57.1441 37.2154 56.2373Q34.1685 55.3305 30.7589 55.3305Q18.4989 55.3305 9.50335 64.9789L9.50335 52.211Q20.6027 45.2468 32.5 45.2468Q38.0134 45.2468 42.8739 46.6976Q47.7344 48.1485 51.3979 51.0141Q55.0614 53.8796 57.1652 58.1597Q59.269 62.4398 59.269 68.0983Q59.269 73.4666 57.3828 77.6742Q55.4966 81.8818 52.6311 85.4002Q49.7656 88.9186 46.4286 91.9655Q43.0915 95.0124 40.226 98.023Q37.3605 101.034 35.4743 104.298Q33.5882 107.563 33.5882 111.48Q33.5882 114.817 34.3862 117.537Q35.1842 120.258 35.9821 122.144L24.3025 122.144ZM30.8315 152.323Q27.6395 152.323 25.173 150.001Q22.779 147.68 22.779 144.343Q22.779 140.933 25.173 138.684Q27.567 136.29 30.8315 136.29Q34.096 136.29 36.49 138.684Q38.8839 140.933 38.8839 144.343Q38.8839 147.68 36.49 150.001Q34.0234 152.323 30.8315 152.323Z" />
  </g>
</svg>