<?xml version="1.0" encoding="utf-8"?>
<svg width="289px" height="228px" viewBox="0 0 289 228" version="1.1" xmlns:xlink="http://www.w3.org/1999/xlink" xmlns="http://www.w3.org/2000/svg">
  <desc>Created with Lunacy</desc>
  <defs>
    <linearGradient x1="1" y1="0.5" x2="0.05321551" y2="0.5" id="gradient_1">
      <stop offset="0" stop-color="#FFEB3F" />
      <stop offset="1" stop-color="#F18C35" />
    </linearGradient>
    <path d="M0 0L286 0L286 225L0 225L0 0Z" id="path_1" />
    <clipPath id="clip_1">
      <use xlink:href="#path_1" />
    </clipPath>
  </defs>
  <g id="ico_1" transform="translate(1.411133 1.411133)">
    <g id="Group" transform="translate(47.25488 45)">
      <g id="Group-13">
        <path d="M37.0118 0.392386L72.3134 19.1948C72.8814 19.4973 72.8827 19.9902 72.3162 20.2956L68.8611 22.1584L67.8918 27.8082C67.783 28.4425 67.8777 29.4454 68.1034 30.0481L70.5144 36.4866C70.7401 37.0893 70.594 37.9828 70.188 38.4822L67.4141 41.8942C67.0081 42.3936 66.3499 42.3936 65.9439 41.8942L63.17 38.4822C62.764 37.9828 62.6179 37.0893 62.8436 36.4866L65.2546 30.0481C65.4803 29.4454 65.5309 28.4521 65.3675 27.8295L64.4969 24.5113L55.7686 29.2171L55.7686 45.9986L16.3455 45.9986L16.3455 29.2202L-0.278378 20.3006C-0.845511 19.9963 -0.844986 19.5039 -0.277206 19.2008L34.9552 0.393337C35.523 0.09025 36.4438 0.0898239 37.0118 0.392386ZM55.7686 22.5611L55.7686 24.1742L63.944 19.7667L35.9855 4.87534L8.10215 19.7596L16.3455 24.1826L16.3455 22.5611C17.2132 22.2293 24.5499 17.5246 35.9843 17.5246C47.4253 17.5246 55.0649 22.2949 55.7686 22.5611ZM50.239 41.5384L21.875 41.5384C21.2314 41.5384 20.7097 41.0167 20.7097 40.3731L20.7097 25.3492C25.5161 23.1158 30.6476 21.9847 35.9843 21.9847C41.329 21.9847 46.631 23.1453 51.4044 25.351L51.4044 40.3731C51.4044 41.0167 50.8826 41.5384 50.239 41.5384ZM65.9663 37.6127L65.9676 37.6142C66.3605 38.0669 66.9975 38.0669 67.3904 37.6142L67.3917 37.6127C67.7847 37.1601 67.9043 36.3497 67.6591 35.8028L67.1559 34.6808C66.8925 34.0935 66.4655 34.0935 66.2021 34.6808L65.6989 35.8028C65.4537 36.3497 65.5733 37.1601 65.9663 37.6127Z" transform="translate(29.72559 20.00098)" id="Shape" fill="#373634" fill-rule="evenodd" stroke="none" />
        <path d="M4.86579 12.6066C4.64132 13.4062 4.55081 14.4421 4.59426 15.7143L8.21102 15.7143C8.21102 14.8472 8.29609 14.14 8.46625 13.5928C8.63641 13.0455 8.91699 12.5746 9.30799 12.1802C9.69899 11.7857 10.2276 11.3895 10.8937 10.9915C11.8785 10.3945 12.6424 9.68017 13.1854 8.84861C13.7285 8.01705 14 7.02204 14 5.86354C14 4.6624 13.7049 3.62296 13.1148 2.7452C12.5247 1.86744 11.7029 1.19048 10.6493 0.714286C9.59581 0.238093 8.37756 0 6.99457 0C5.72743 0 4.57073 0.229209 3.52444 0.687633C2.47814 1.14606 1.63822 1.82835 1.00465 2.73454C0.371086 3.64073 0.036204 4.76901 0 6.1194L3.86656 6.1194C3.91725 5.11727 4.25575 4.37278 4.88208 3.88593C5.50841 3.39907 6.20532 3.15565 6.97285 3.15565C7.80554 3.15565 8.51332 3.40618 9.0962 3.90725C9.67908 4.40832 9.97052 5.07818 9.97052 5.91684C9.97052 6.6489 9.75511 7.27967 9.32428 7.80917C8.89346 8.33867 8.33411 8.81308 7.64624 9.23241L7.47653 9.33824C6.86257 9.72996 6.33989 10.162 5.90846 10.6343C5.4378 11.1496 5.09025 11.807 4.86579 12.6066ZM4.56781 21.3058C5.0274 21.7686 5.57889 22 6.2223 22C6.85158 22 7.396 21.7686 7.85558 21.3058C8.31516 20.843 8.54848 20.2851 8.55556 19.6321C8.54848 18.9863 8.31516 18.4338 7.85558 17.9746C7.396 17.5153 6.85158 17.2857 6.2223 17.2857C5.57889 17.2857 5.0274 17.5153 4.56781 17.9746C4.10823 18.4338 3.88198 18.9863 3.88905 19.6321C3.88198 20.2851 4.10823 20.843 4.56781 21.3058Z" transform="matrix(0.8660254 0.5 -0.5 0.8660254 123.1831 65.97363)" id="?" fill="#373634" fill-rule="evenodd" stroke="none" />
        <path d="M3.82312 9.74147C3.64675 10.3593 3.57564 11.1598 3.60978 12.1429L6.45151 12.1429C6.45151 11.4728 6.51836 10.9264 6.65206 10.5035C6.78575 10.0806 7.00621 9.71676 7.31342 9.41195C7.62064 9.10714 8.03594 8.80096 8.55935 8.49341C9.33308 8.03208 9.93328 7.48014 10.36 6.83757C10.7867 6.195 11 5.42612 11 4.53092C11 3.60276 10.7682 2.79956 10.3045 2.12129C9.84083 1.44302 9.19512 0.919915 8.36734 0.551948C7.53956 0.183981 6.58237 0 5.49573 0C4.50012 0 3.59129 0.177116 2.7692 0.531353C1.94711 0.88559 1.28718 1.41282 0.789372 2.11305C0.291567 2.81329 0.028446 3.68514 0 4.72863L3.03801 4.72863C3.07784 3.95425 3.3438 3.37897 3.83592 3.00276C4.32803 2.62656 4.87561 2.43846 5.47867 2.43846C6.13292 2.43846 6.68903 2.63205 7.14701 3.01924C7.60499 3.40643 7.83398 3.92405 7.83398 4.57211C7.83398 5.13779 7.66473 5.6252 7.32622 6.03436C6.98771 6.44351 6.54823 6.8101 6.00776 7.13413L5.87442 7.21591C5.39202 7.51861 4.98134 7.85244 4.64236 8.21744C4.27256 8.61561 3.99948 9.12362 3.82312 9.74147ZM3.589 16.4636C3.9501 16.8212 4.38341 17 4.88895 17C5.38338 17 5.81114 16.8212 6.17224 16.4636C6.53334 16.1059 6.71667 15.6748 6.72222 15.1703C6.71667 14.6712 6.53334 14.2443 6.17224 13.8894C5.81114 13.5346 5.38338 13.3571 4.88895 13.3571C4.38341 13.3571 3.9501 13.5346 3.589 13.8894C3.2279 14.2443 3.05013 14.6712 3.05568 15.1703C3.05013 15.6748 3.2279 16.1059 3.589 16.4636Z" transform="matrix(0.9063078 0.4226183 -0.4226183 0.9063078 9.852539 7.47168)" id="?-copy-2" fill="#373634" fill-rule="evenodd" stroke="none" />
        <path d="M0 0.118514L9.97846 0.881486" transform="translate(1.745117 49.88184)" id="Path-2" fill="none" stroke="#373634" stroke-width="2.82209945" stroke-linecap="round" />
        <path d="M0 2.23703L13.6637 4.41212e-13" transform="translate(129.0601 47.7627)" id="Path-2-Copy-8" fill="none" stroke="#373634" stroke-width="2.82209945" stroke-linecap="round" />
        <path d="M5.81556e-13 7.25008L1.27885 4.41212e-13" transform="translate(65.74512 0)" id="Path-2-Copy-9" fill="none" stroke="#373634" stroke-width="2.82209945" stroke-linecap="round" />
        <path d="M2.78045 7.44936C2.65218 7.92184 2.60047 8.53395 2.62529 9.28571L4.69201 9.28571C4.69201 8.77334 4.74063 8.35546 4.83786 8.03208C4.93509 7.70869 5.09542 7.43046 5.31885 7.19737C5.54228 6.96428 5.84432 6.73015 6.22498 6.49496C6.78769 6.14218 7.2242 5.7201 7.53452 5.22873C7.84484 4.73735 8 4.14939 8 3.46482C8 2.75505 7.8314 2.14084 7.49418 1.62217C7.15697 1.10349 6.68736 0.703465 6.08534 0.422078C5.48332 0.140691 4.78718 0 3.9969 0C3.27282 0 2.61185 0.135442 2.01396 0.406329C1.41608 0.677216 0.936128 1.08039 0.574088 1.61587C0.212049 2.15134 0.020688 2.81805 0 3.61601L2.20946 3.61601C2.23843 3.02384 2.43186 2.58392 2.78976 2.29623C3.14766 2.00854 3.5459 1.8647 3.98448 1.8647C4.46031 1.8647 4.86475 2.01274 5.19783 2.30883C5.5309 2.60492 5.69744 3.00074 5.69744 3.49632C5.69744 3.9289 5.57435 4.30162 5.32816 4.61451C5.08197 4.92739 4.76235 5.20773 4.36928 5.45551L4.2723 5.51805C3.92147 5.74952 3.62279 6.00481 3.37626 6.28392C3.10732 6.58841 2.90872 6.97688 2.78045 7.44936ZM2.61018 12.5898C2.8728 12.8633 3.18794 13 3.5556 13C3.91519 13 4.22628 12.8633 4.4889 12.5898C4.75152 12.3163 4.88485 11.9866 4.88889 11.6008C4.88485 11.2192 4.75152 10.8927 4.4889 10.6213C4.22628 10.35 3.91519 10.2143 3.5556 10.2143C3.18794 10.2143 2.8728 10.35 2.61018 10.6213C2.34756 10.8927 2.21827 11.2192 2.22231 11.6008C2.21827 11.9866 2.34756 12.3163 2.61018 12.5898Z" transform="matrix(0.9063078 -0.4226183 0.4226183 0.9063078 110.373 18.2998)" id="?-copy-3" fill="#373634" fill-rule="evenodd" stroke="none" />
        <path d="M5.21334 13.1796C4.97285 14.0156 4.87587 15.0985 4.92242 16.4286L8.79752 16.4286C8.79752 15.5221 8.88867 14.7827 9.07098 14.2106C9.2533 13.6385 9.55392 13.1462 9.97285 12.7338C10.3918 12.3214 10.9581 11.9072 11.6718 11.4911C12.7269 10.8669 13.5454 10.1202 14.1272 9.25082C14.7091 8.38146 15 7.34122 15 6.13006C15 4.87432 14.6839 3.78764 14.0516 2.86998C13.4193 1.95233 12.5388 1.24459 11.41 0.746753C10.2812 0.248915 8.97596 0 7.49418 0C6.13653 0 4.89721 0.239627 3.77618 0.718889C2.65515 1.19815 1.75524 1.91146 1.07642 2.85884C0.397592 3.80622 0.03879 4.98578 0 6.39756L4.14275 6.39756C4.19705 5.34987 4.55973 4.57154 5.2308 4.06256C5.90187 3.55358 6.64856 3.29909 7.47091 3.29909C8.36308 3.29909 9.12141 3.56101 9.74593 4.08485C10.3704 4.6087 10.6827 5.309 10.6827 6.18579C10.6827 6.95113 10.4519 7.61056 9.9903 8.16413C9.5287 8.7177 8.92941 9.21367 8.1924 9.65206L8.01057 9.76271C7.35276 10.1722 6.79274 10.6239 6.33049 11.1177C5.82622 11.6564 5.45384 12.3437 5.21334 13.1796ZM4.89409 22.2742C5.3865 22.7581 5.97738 23 6.66675 23C7.34097 23 7.92428 22.7581 8.41669 22.2742C8.9091 21.7904 9.15909 21.2071 9.16667 20.5245C9.15909 19.8493 8.9091 19.2717 8.41669 18.7916C7.92428 18.3115 7.34097 18.0714 6.66675 18.0714C5.97738 18.0714 5.3865 18.3115 4.89409 18.7916C4.40168 19.2717 4.15926 19.8493 4.16684 20.5245C4.15926 21.2071 4.40168 21.7904 4.89409 22.2742Z" transform="matrix(0.8660254 -0.5 0.5 0.8660254 0 77.29102)" id="?-copy" fill="#373634" fill-rule="evenodd" stroke="none" />
        <path d="M13.0935 0L46.9084 0C54.136 0.00980935 59.9922 5.866 60 13.0935L60 46.9084C59.9902 54.134 54.134 59.9922 46.9084 60L13.0935 60C5.866 59.9922 0.00980925 54.134 0 46.9084L0 13.0935C0.00980925 5.866 5.866 0.00980935 13.0935 0ZM46.9083 51.4284C49.4038 51.4265 51.4265 49.4038 51.4284 46.9083L51.4284 13.0934C51.4265 10.5959 49.4038 8.57325 46.9083 8.57129L13.0934 8.57129C10.5959 8.57325 8.57325 10.5959 8.57129 13.0934L8.57129 46.9083C8.57325 49.4038 10.5959 51.4265 13.0934 51.4284L25.7141 51.4284L25.7141 29.7301C25.722 22.7811 31.3526 17.1506 38.3015 17.1427L42.857 17.1427L42.857 25.7141L38.3015 25.7141C36.0846 25.7161 34.2875 27.5132 34.2856 29.7301L34.2856 34.2856L42.857 34.2856L42.857 42.857L34.2856 42.857L34.2856 51.4284L46.9083 51.4284Z" transform="translate(35.74512 61)" id="Shape" fill="url(#gradient_1)" fill-rule="evenodd" stroke="none" />
      </g>
    </g>
    <g id="Rectangle">
      <g clip-path="url(#clip_1)">
        <use xlink:href="#path_1" fill="none" stroke="#373634" stroke-width="10" />
      </g>
    </g>
  </g>
</svg>