<?xml version="1.0" encoding="utf-8"?>
<svg width="26px" height="26px" viewBox="0 0 26 26" version="1.1" xmlns:xlink="http://www.w3.org/1999/xlink" xmlns="http://www.w3.org/2000/svg">
  <g id="facebook">
    <path d="M24.3205 0L1.1127 0C0.476872 0 0 0.477369 0 1.11386L0 24.5049C0 24.9823 0.476872 25.4597 1.1127 25.4597L12.7166 25.4597L12.7166 17.5035L9.53745 17.5035L9.53745 12.7298L12.7166 12.7298L12.7166 9.54738C12.7166 6.2058 14.6241 4.77369 17.4853 4.77369C18.9159 4.77369 20.3466 4.77369 20.6645 4.77369L20.6645 9.54738L19.0749 9.54738C18.1212 9.54738 17.4853 10.1839 17.4853 11.1386L17.4853 12.7298L21.6182 12.7298L20.6645 17.5035L17.4853 17.5035L17.4853 25.4597L24.3205 25.4597C24.9563 25.4597 25.4332 24.9823 25.4332 24.3458L25.4332 1.11386C25.4332 0.477369 24.9563 0 24.3205 0Z" id="Shape" fill="#FFFFFF" stroke="none" />
  </g>
</svg>
